<?xml version="1.0" encoding="UTF-8"?>
<svg version="1.1" xmlns="http://www.w3.org/2000/svg" width="1059" height="906">
<path d="M0 0 C349.47 0 698.94 0 1059 0 C1059 298.98 1059 597.96 1059 906 C709.53 906 360.06 906 0 906 C0 607.02 0 308.04 0 0 Z " fill="#FEFEFE" transform="translate(0,0)"/>
<path d="M0 0 C3.2098322 -0.00108189 6.41964313 -0.00580541 9.62947083 -0.01112747 C14.76770846 -0.01802014 19.90579266 -0.01230766 25.04401016 0.0032692 C26.94461681 0.00808093 28.84523352 0.01000961 30.74584579 0.00868607 C41.51671396 0.00695875 52.03750012 0.4750342 62.72596741 1.84405136 C68.21877619 2.50660882 73.69931036 2.75571865 79.22554016 2.93641281 C80.24132141 2.97508469 81.25710266 3.01375656 82.30366516 3.05360031 C84.73580887 3.14537932 87.16798657 3.23139032 89.60054016 3.31141281 C89.93054016 4.96141281 90.26054016 6.61141281 90.60054016 8.31141281 C91.18190735 8.40293625 91.76327454 8.49445969 92.36225891 8.58875656 C95.15411075 9.49013979 96.38649413 10.76481909 98.41304016 12.87391281 C99.10913391 13.59578781 99.80522766 14.31766281 100.52241516 15.06141281 C103.03693657 17.78390215 105.46996987 20.56768819 107.88569641 23.37781906 C110.10101396 25.87572837 112.46952187 28.1916627 114.85054016 30.53016281 C117.30688865 33.03037466 119.56363384 35.68821797 121.85054016 38.34266281 C124.05003078 40.81708976 126.39336252 43.11758799 128.75556946 45.43519211 C130.54048074 47.25033611 132.21003392 49.12031518 133.87007141 51.04969406 C137.41447968 55.12599768 141.07818145 59.07342162 144.78804016 62.99891281 C146.10742584 64.40090351 147.42643117 65.80325222 148.74507141 67.20594406 C149.39427551 67.89639816 150.04347961 68.58685226 150.71235657 69.29822922 C156.82960648 75.82044835 162.89716428 82.38913871 168.85054016 89.06141281 C173.70657283 94.48457338 178.71664242 99.76014451 183.71650696 105.05018234 C188.12535341 109.72192494 192.45052362 114.45100523 196.72163391 119.24891281 C199.03797397 121.79158963 201.4708432 124.19559533 203.92475891 126.60438156 C205.71107459 128.42400849 207.37531852 130.31595198 209.03804016 132.24891281 C211.45671795 135.05717628 213.95953699 137.71111874 216.60054016 140.31141281 C219.85083999 143.51170803 222.84778261 146.85365857 225.81929016 150.31141281 C227.67479226 152.39478359 229.61277117 154.35422488 231.60054016 156.31141281 C236.29501951 160.94220736 240.63588323 165.82669964 244.72554016 170.99891281 C247.56025458 174.49506059 250.82699862 177.549064 254.03022766 180.70594406 C258.57844773 185.20330544 262.98539966 189.74469954 267.12788391 194.62000656 C268.58345074 196.34720809 268.58345074 196.34720809 270.29194641 197.90906906 C271.60054016 199.31141281 271.60054016 199.31141281 271.60054016 201.31141281 C272.49772766 201.69619797 272.49772766 201.69619797 273.41304016 202.08875656 C276.41132674 203.76458459 277.97717299 206.05913126 280.03804016 208.75281906 C281.85034569 210.56059382 283.10558618 210.91888772 285.60054016 211.31141281 C285.60054016 213.29141281 285.60054016 215.27141281 285.60054016 217.31141281 C286.40491516 217.43516281 287.20929016 217.55891281 288.03804016 217.68641281 C288.88366516 217.89266281 289.72929016 218.09891281 290.60054016 218.31141281 C292.32944985 221.76923218 292.08941528 225.53077856 291.60054016 229.31141281 C289.72554016 232.37391281 289.72554016 232.37391281 287.60054016 234.31141281 C286.94054016 234.31141281 286.28054016 234.31141281 285.60054016 234.31141281 C285.64496319 235.25742308 285.64496319 235.25742308 285.69028366 236.22254467 C286.57442628 255.67425328 286.74656006 275.08275246 286.73126483 294.55032539 C286.72896339 298.9018417 286.73251326 303.25335432 286.73524475 307.60486984 C286.73964978 316.08523024 286.73875023 324.5655817 286.73583211 333.04594243 C286.73355953 339.93927338 286.73327352 346.83260185 286.73435593 353.72593307 C286.73458578 355.20605079 286.73458578 355.20605079 286.73482027 356.71606988 C286.73514003 358.72137141 286.73546425 360.72667295 286.73579286 362.73197448 C286.73863157 381.45047939 286.73538476 400.16897937 286.72999249 418.88748348 C286.72551473 434.92853529 286.72631149 450.96957987 286.73091125 467.01063156 C286.73626628 485.69400241 286.73836872 504.37736897 286.73529899 523.06074047 C286.73498047 525.05314191 286.7346661 527.04554335 286.73435593 529.03794479 C286.73420165 530.01798377 286.73404738 530.99802274 286.73388842 532.00775987 C286.73302689 538.89634226 286.73447807 545.78492191 286.73683548 552.67350388 C286.73964349 561.06185247 286.7388736 569.45019171 286.73355474 577.83853924 C286.73093298 582.11340737 286.72988692 586.3882599 286.73320389 590.6631279 C286.73619762 594.58059918 286.73452311 598.49804052 286.72922634 602.4155091 C286.72811538 603.82740496 286.72866375 605.23930337 286.73110212 606.65119755 C286.76839419 630.05041196 286.76839419 630.05041196 282.28804016 635.87391281 C281.39665344 637.08240891 281.39665344 637.08240891 280.48725891 638.31531906 C277.39613036 641.58564347 274.46481985 642.53646813 270.04217529 642.90261459 C269.15962507 642.97614214 268.27707485 643.04966969 267.36778069 643.12542534 C262.75866877 643.43520581 258.14993204 643.66332437 253.53437805 643.8521843 C251.94331741 643.92073624 251.94331741 643.92073624 250.32011414 643.99067307 C246.82125305 644.14071151 243.3222344 644.28665671 239.82319641 644.43250656 C237.33648738 644.53816136 234.84978814 644.6440468 232.36309814 644.75014877 C227.12875969 644.97290841 221.89434938 645.19388697 216.65986633 645.41321945 C210.1163849 645.68740801 203.57304525 645.96484786 197.02974987 646.24343967 C147.37655633 648.35698268 97.7173794 650.29046747 48.05311584 652.1236763 C44.59080608 652.25158129 41.12850838 652.37980851 37.66621399 652.50812912 C13.26864801 653.41224808 -11.12914786 654.30838517 -35.52836609 655.16688156 C-36.93341558 655.21635815 -36.93341558 655.21635815 -38.3668499 655.26683426 C-45.59527305 655.52135741 -52.82369853 655.7758173 -60.05215073 656.02951431 C-80.31232021 656.74076745 -100.56643262 657.49406782 -120.81486511 658.49308395 C-141.65051208 659.51229373 -162.5047606 660.04095554 -183.35649109 660.61439133 C-195.88828732 660.95985149 -208.41937069 661.31226216 -220.94633484 661.80750656 C-221.89824707 661.84320251 -222.8501593 661.87889847 -223.83091736 661.91567612 C-227.75049241 662.07937361 -231.61481042 662.29898945 -235.5032196 662.82801437 C-239.75862989 663.35597429 -243.91010344 663.50741587 -248.19242859 663.54969406 C-249.01289169 663.5594426 -249.8333548 663.56919113 -250.67868042 663.57923508 C-285.67709785 663.90996069 -285.67709785 663.90996069 -300.39945984 659.31141281 C-301.94053406 658.83768234 -301.94053406 658.83768234 -303.51274109 658.35438156 C-311.09540434 655.28219478 -315.80215861 648.80082644 -320.39945984 642.31141281 C-321.14711609 641.26985031 -321.89477234 640.22828781 -322.66508484 639.15516281 C-332.69115521 623.55905335 -332.63687859 606.29566317 -332.52055359 588.33485031 C-332.51395534 586.48244517 -332.50785795 584.63003819 -332.50222778 582.77762985 C-332.48100595 576.9554518 -332.44233375 571.13346701 -332.39945984 565.31141281 C-332.39279549 564.37831284 -332.38613113 563.44521286 -332.37926483 562.48383713 C-332.29159329 550.42324175 -332.16904374 538.36318224 -332.02714539 526.30311203 C-331.9829191 522.54076564 -331.94130842 518.77840515 -331.90214539 515.01600266 C-331.70017629 495.62193274 -331.42697168 476.24216729 -330.75822449 456.85813522 C-330.44245746 447.46735224 -330.26045882 438.0813726 -330.15336609 428.68641281 C-330.14136232 427.63886007 -330.14136232 427.63886007 -330.12911606 426.57014465 C-330.09677304 423.70931214 -330.06528965 420.84847163 -330.03474045 417.9876194 C-329.73589597 390.01389326 -329.15083538 362.06822937 -328.20048523 334.10828781 C-328.1115671 331.47808944 -328.02294808 328.84788094 -327.93461609 326.21766281 C-327.91244585 325.55855911 -327.89027561 324.89945541 -327.86743355 324.22037888 C-327.47161836 312.36689301 -327.1716981 300.51198222 -326.89555359 288.65516281 C-326.85342849 286.8658149 -326.8112786 285.07646757 -326.769104 283.28712082 C-326.60457457 276.2752269 -326.4401774 269.2633468 -326.29084778 262.25111008 C-325.85191584 241.67498133 -325.04520334 221.18455786 -323.62583923 200.65198898 C-323.31790248 196.10790851 -323.05245942 191.56209031 -322.80180359 187.01453781 C-322.74163559 185.93127213 -322.74163559 185.93127213 -322.68025208 184.82612228 C-322.60343047 183.43529974 -322.5270731 182.04445147 -322.45121765 180.6535759 C-322.33001748 178.43429206 -322.20662048 176.21513637 -322.08305359 173.99598312 C-321.73533354 167.71687922 -321.39523921 161.43805726 -321.12211609 155.15516281 C-320.79706748 147.68868614 -320.35072364 140.34400269 -319.33695984 132.93641281 C-319.01553357 130.39585956 -318.70279932 127.85418902 -318.39945984 125.31141281 C-318.24090515 124.02750656 -318.08235046 122.74360031 -317.91899109 121.42078781 C-317.65709831 117.79224443 -317.54214686 114.84900649 -318.39945984 111.31141281 C-321.33296406 108.37224546 -324.63712395 106.96977376 -328.39945984 105.31141281 C-334.58420939 101.20590454 -339.07700154 95.33990503 -341.39945984 88.31141281 C-342.82286412 77.22528334 -340.48516275 69.93265404 -333.78227234 61.20594406 C-325.79704384 52.31572299 -313.51002922 45.48456407 -302.39945984 41.31141281 C-301.2560614 40.86539719 -300.11266296 40.41938156 -298.93461609 39.95985031 C-272.7690468 29.85588976 -246.13800447 23.21074223 -218.62773132 17.93690109 C-215.79156358 17.38738421 -212.96273632 16.8109172 -210.13383484 16.22547531 C-205.26744514 15.24872315 -200.38330273 14.56959766 -195.46195984 13.93641281 C-188.05435153 12.96053343 -180.66435284 11.90628577 -173.27885437 10.77503586 C-162.0793744 9.06309946 -150.91977558 7.65493232 -139.62992859 6.70594406 C-137.1735218 6.49632925 -134.82975684 6.2128816 -132.39555359 5.79188156 C-127.5776439 5.01925719 -122.72629069 4.91835858 -117.85649109 4.70594406 C-117.08434265 4.66856125 -116.31219421 4.63117844 -115.51664734 4.59266281 C-114.82168152 4.56236984 -114.1267157 4.53207687 -113.41069031 4.50086594 C-111.4078319 4.36740783 -111.4078319 4.36740783 -109.55116272 3.82387924 C-107.32420164 3.29348873 -105.24424378 3.0744475 -102.96098328 2.9224968 C-102.06624298 2.86253525 -101.17150269 2.8025737 -100.24964905 2.74079514 C-98.76919601 2.65006729 -98.76919601 2.65006729 -97.25883484 2.55750656 C-96.1933139 2.49210678 -95.12779297 2.426707 -94.02998352 2.35932541 C-62.68415957 0.50857774 -31.39692388 0.00395904 0 0 Z " fill="#FEFEFE" transform="translate(551.3994598388672,106.6885871887207)"/>
<path d="M0 0 C3.2098322 -0.00108189 6.41964313 -0.00580541 9.62947083 -0.01112747 C14.76770846 -0.01802014 19.90579266 -0.01230766 25.04401016 0.0032692 C26.94461681 0.00808093 28.84523352 0.01000961 30.74584579 0.00868607 C41.51671396 0.00695875 52.03750012 0.4750342 62.72596741 1.84405136 C68.21877619 2.50660882 73.69931036 2.75571865 79.22554016 2.93641281 C80.24132141 2.97508469 81.25710266 3.01375656 82.30366516 3.05360031 C84.73580887 3.14537932 87.16798657 3.23139032 89.60054016 3.31141281 C89.93054016 4.96141281 90.26054016 6.61141281 90.60054016 8.31141281 C91.18190735 8.40293625 91.76327454 8.49445969 92.36225891 8.58875656 C95.15411075 9.49013979 96.38649413 10.76481909 98.41304016 12.87391281 C99.10913391 13.59578781 99.80522766 14.31766281 100.52241516 15.06141281 C103.03693657 17.78390215 105.46996987 20.56768819 107.88569641 23.37781906 C110.10101396 25.87572837 112.46952187 28.1916627 114.85054016 30.53016281 C117.30688865 33.03037466 119.56363384 35.68821797 121.85054016 38.34266281 C124.05003078 40.81708976 126.39336252 43.11758799 128.75556946 45.43519211 C130.54048074 47.25033611 132.21003392 49.12031518 133.87007141 51.04969406 C137.41447968 55.12599768 141.07818145 59.07342162 144.78804016 62.99891281 C146.10742584 64.40090351 147.42643117 65.80325222 148.74507141 67.20594406 C149.39427551 67.89639816 150.04347961 68.58685226 150.71235657 69.29822922 C156.82960648 75.82044835 162.89716428 82.38913871 168.85054016 89.06141281 C173.70657283 94.48457338 178.71664242 99.76014451 183.71650696 105.05018234 C188.12535341 109.72192494 192.45052362 114.45100523 196.72163391 119.24891281 C199.03797397 121.79158963 201.4708432 124.19559533 203.92475891 126.60438156 C205.71107459 128.42400849 207.37531852 130.31595198 209.03804016 132.24891281 C211.45671795 135.05717628 213.95953699 137.71111874 216.60054016 140.31141281 C219.85083999 143.51170803 222.84778261 146.85365857 225.81929016 150.31141281 C227.67479226 152.39478359 229.61277117 154.35422488 231.60054016 156.31141281 C236.29501951 160.94220736 240.63588323 165.82669964 244.72554016 170.99891281 C247.56025458 174.49506059 250.82699862 177.549064 254.03022766 180.70594406 C258.57844773 185.20330544 262.98539966 189.74469954 267.12788391 194.62000656 C268.58345074 196.34720809 268.58345074 196.34720809 270.29194641 197.90906906 C271.60054016 199.31141281 271.60054016 199.31141281 271.60054016 201.31141281 C272.49772766 201.69619797 272.49772766 201.69619797 273.41304016 202.08875656 C276.41132674 203.76458459 277.97717299 206.05913126 280.03804016 208.75281906 C281.85034569 210.56059382 283.10558618 210.91888772 285.60054016 211.31141281 C285.60054016 213.29141281 285.60054016 215.27141281 285.60054016 217.31141281 C286.40491516 217.43516281 287.20929016 217.55891281 288.03804016 217.68641281 C288.88366516 217.89266281 289.72929016 218.09891281 290.60054016 218.31141281 C292.32944985 221.76923218 292.08941528 225.53077856 291.60054016 229.31141281 C289.72554016 232.37391281 289.72554016 232.37391281 287.60054016 234.31141281 C286.94054016 234.31141281 286.28054016 234.31141281 285.60054016 234.31141281 C285.64496319 235.25742308 285.64496319 235.25742308 285.69028366 236.22254467 C286.57442628 255.67425328 286.74656006 275.08275246 286.73126483 294.55032539 C286.72896339 298.9018417 286.73251326 303.25335432 286.73524475 307.60486984 C286.73964978 316.08523024 286.73875023 324.5655817 286.73583211 333.04594243 C286.73355953 339.93927338 286.73327352 346.83260185 286.73435593 353.72593307 C286.73458578 355.20605079 286.73458578 355.20605079 286.73482027 356.71606988 C286.73514003 358.72137141 286.73546425 360.72667295 286.73579286 362.73197448 C286.73863157 381.45047939 286.73538476 400.16897937 286.72999249 418.88748348 C286.72551473 434.92853529 286.72631149 450.96957987 286.73091125 467.01063156 C286.73626628 485.69400241 286.73836872 504.37736897 286.73529899 523.06074047 C286.73498047 525.05314191 286.7346661 527.04554335 286.73435593 529.03794479 C286.73420165 530.01798377 286.73404738 530.99802274 286.73388842 532.00775987 C286.73302689 538.89634226 286.73447807 545.78492191 286.73683548 552.67350388 C286.73964349 561.06185247 286.7388736 569.45019171 286.73355474 577.83853924 C286.73093298 582.11340737 286.72988692 586.3882599 286.73320389 590.6631279 C286.73619762 594.58059918 286.73452311 598.49804052 286.72922634 602.4155091 C286.72811538 603.82740496 286.72866375 605.23930337 286.73110212 606.65119755 C286.76839419 630.05041196 286.76839419 630.05041196 282.28804016 635.87391281 C281.39665344 637.08240891 281.39665344 637.08240891 280.48725891 638.31531906 C277.39613036 641.58564347 274.46481985 642.53646813 270.04217529 642.90261459 C269.15962507 642.97614214 268.27707485 643.04966969 267.36778069 643.12542534 C262.75866877 643.43520581 258.14993204 643.66332437 253.53437805 643.8521843 C251.94331741 643.92073624 251.94331741 643.92073624 250.32011414 643.99067307 C246.82125305 644.14071151 243.3222344 644.28665671 239.82319641 644.43250656 C237.33648738 644.53816136 234.84978814 644.6440468 232.36309814 644.75014877 C227.12875969 644.97290841 221.89434938 645.19388697 216.65986633 645.41321945 C210.1163849 645.68740801 203.57304525 645.96484786 197.02974987 646.24343967 C147.37655633 648.35698268 97.7173794 650.29046747 48.05311584 652.1236763 C44.59080608 652.25158129 41.12850838 652.37980851 37.66621399 652.50812912 C13.26864801 653.41224808 -11.12914786 654.30838517 -35.52836609 655.16688156 C-36.93341558 655.21635815 -36.93341558 655.21635815 -38.3668499 655.26683426 C-45.59527305 655.52135741 -52.82369853 655.7758173 -60.05215073 656.02951431 C-80.31232021 656.74076745 -100.56643262 657.49406782 -120.81486511 658.49308395 C-141.65051208 659.51229373 -162.5047606 660.04095554 -183.35649109 660.61439133 C-195.88828732 660.95985149 -208.41937069 661.31226216 -220.94633484 661.80750656 C-221.89824707 661.84320251 -222.8501593 661.87889847 -223.83091736 661.91567612 C-227.75049241 662.07937361 -231.61481042 662.29898945 -235.5032196 662.82801437 C-239.75862989 663.35597429 -243.91010344 663.50741587 -248.19242859 663.54969406 C-249.01289169 663.5594426 -249.8333548 663.56919113 -250.67868042 663.57923508 C-285.67709785 663.90996069 -285.67709785 663.90996069 -300.39945984 659.31141281 C-301.94053406 658.83768234 -301.94053406 658.83768234 -303.51274109 658.35438156 C-311.09540434 655.28219478 -315.80215861 648.80082644 -320.39945984 642.31141281 C-321.14711609 641.26985031 -321.89477234 640.22828781 -322.66508484 639.15516281 C-332.69115521 623.55905335 -332.63687859 606.29566317 -332.52055359 588.33485031 C-332.51395534 586.48244517 -332.50785795 584.63003819 -332.50222778 582.77762985 C-332.48100595 576.9554518 -332.44233375 571.13346701 -332.39945984 565.31141281 C-332.39279549 564.37831284 -332.38613113 563.44521286 -332.37926483 562.48383713 C-332.29159329 550.42324175 -332.16904374 538.36318224 -332.02714539 526.30311203 C-331.9829191 522.54076564 -331.94130842 518.77840515 -331.90214539 515.01600266 C-331.70017629 495.62193274 -331.42697168 476.24216729 -330.75822449 456.85813522 C-330.44245746 447.46735224 -330.26045882 438.0813726 -330.15336609 428.68641281 C-330.14136232 427.63886007 -330.14136232 427.63886007 -330.12911606 426.57014465 C-330.09677304 423.70931214 -330.06528965 420.84847163 -330.03474045 417.9876194 C-329.73589597 390.01389326 -329.15083538 362.06822937 -328.20048523 334.10828781 C-328.1115671 331.47808944 -328.02294808 328.84788094 -327.93461609 326.21766281 C-327.91244585 325.55855911 -327.89027561 324.89945541 -327.86743355 324.22037888 C-327.47161836 312.36689301 -327.1716981 300.51198222 -326.89555359 288.65516281 C-326.85342849 286.8658149 -326.8112786 285.07646757 -326.769104 283.28712082 C-326.60457457 276.2752269 -326.4401774 269.2633468 -326.29084778 262.25111008 C-325.85191584 241.67498133 -325.04520334 221.18455786 -323.62583923 200.65198898 C-323.31790248 196.10790851 -323.05245942 191.56209031 -322.80180359 187.01453781 C-322.74163559 185.93127213 -322.74163559 185.93127213 -322.68025208 184.82612228 C-322.60343047 183.43529974 -322.5270731 182.04445147 -322.45121765 180.6535759 C-322.33001748 178.43429206 -322.20662048 176.21513637 -322.08305359 173.99598312 C-321.73533354 167.71687922 -321.39523921 161.43805726 -321.12211609 155.15516281 C-320.79706748 147.68868614 -320.35072364 140.34400269 -319.33695984 132.93641281 C-319.01553357 130.39585956 -318.70279932 127.85418902 -318.39945984 125.31141281 C-318.24090515 124.02750656 -318.08235046 122.74360031 -317.91899109 121.42078781 C-317.65709831 117.79224443 -317.54214686 114.84900649 -318.39945984 111.31141281 C-321.33296406 108.37224546 -324.63712395 106.96977376 -328.39945984 105.31141281 C-334.58420939 101.20590454 -339.07700154 95.33990503 -341.39945984 88.31141281 C-342.82286412 77.22528334 -340.48516275 69.93265404 -333.78227234 61.20594406 C-325.79704384 52.31572299 -313.51002922 45.48456407 -302.39945984 41.31141281 C-301.2560614 40.86539719 -300.11266296 40.41938156 -298.93461609 39.95985031 C-272.7690468 29.85588976 -246.13800447 23.21074223 -218.62773132 17.93690109 C-215.79156358 17.38738421 -212.96273632 16.8109172 -210.13383484 16.22547531 C-205.26744514 15.24872315 -200.38330273 14.56959766 -195.46195984 13.93641281 C-188.05435153 12.96053343 -180.66435284 11.90628577 -173.27885437 10.77503586 C-162.0793744 9.06309946 -150.91977558 7.65493232 -139.62992859 6.70594406 C-137.1735218 6.49632925 -134.82975684 6.2128816 -132.39555359 5.79188156 C-127.5776439 5.01925719 -122.72629069 4.91835858 -117.85649109 4.70594406 C-117.08434265 4.66856125 -116.31219421 4.63117844 -115.51664734 4.59266281 C-114.82168152 4.56236984 -114.1267157 4.53207687 -113.41069031 4.50086594 C-111.4078319 4.36740783 -111.4078319 4.36740783 -109.55116272 3.82387924 C-107.32420164 3.29348873 -105.24424378 3.0744475 -102.96098328 2.9224968 C-102.06624298 2.86253525 -101.17150269 2.8025737 -100.24964905 2.74079514 C-98.76919601 2.65006729 -98.76919601 2.65006729 -97.25883484 2.55750656 C-96.1933139 2.49210678 -95.12779297 2.426707 -94.02998352 2.35932541 C-62.68415957 0.50857774 -31.39692388 0.00395904 0 0 Z M-103.33311462 20.18183517 C-106.56613244 20.38457323 -109.80113808 20.54693188 -113.03617859 20.71375656 C-128.78534019 21.57929302 -144.46172783 23.14279747 -160.14945984 24.74891281 C-161.17157562 24.85232986 -162.19369141 24.95574692 -163.2467804 25.06229782 C-175.39943953 26.30099659 -187.42324012 27.83739141 -199.45097351 29.972332 C-202.36271103 30.47904036 -205.28266402 30.92733197 -208.20414734 31.37391281 C-209.72781921 31.60981125 -209.72781921 31.60981125 -211.28227234 31.85047531 C-213.2999613 32.16129424 -215.31820855 32.46850764 -217.33695984 32.77235031 C-223.56927474 33.74465519 -229.62846138 35.04061743 -235.7339325 36.62440109 C-238.85486186 37.42878791 -241.99204765 38.10380702 -245.14945984 38.74891281 C-250.44449362 39.8679967 -255.70843817 41.07621815 -260.96195984 42.37391281 C-261.62872742 42.53625412 -262.295495 42.69859543 -262.98246765 42.86585617 C-266.59381611 43.76961127 -269.95622534 44.91328416 -273.39945984 46.31141281 C-275.6226183 46.95745886 -277.85243114 47.58086304 -280.08695984 48.18641281 C-286.0630452 49.88149292 -291.72472429 51.79369287 -297.39945984 54.31141281 C-298.01160339 54.57937668 -298.62374695 54.84734055 -299.25444031 55.12342453 C-319.4637669 63.39361843 -319.4637669 63.39361843 -334.39945984 78.31141281 C-335.70634905 81.87828171 -335.90362843 84.75493885 -334.72758484 88.38563156 C-331.56360225 95.19338099 -326.41717663 102.1557952 -319.39945984 105.31141281 C-317.39459135 105.0538686 -317.39459135 105.0538686 -315.39945984 104.31141281 C-314.06782463 103.97135906 -312.73468585 103.63708194 -311.39945984 103.31141281 C-311.26410828 104.52828781 -311.12875671 105.74516281 -310.98930359 106.99891281 C-310.28874556 109.79375119 -309.78167087 111.00855457 -307.50151062 112.81531906 C-305.03152329 114.12607133 -302.54582031 115.24288479 -299.96195984 116.31141281 C-299.08990906 116.70457687 -298.21785828 117.09774094 -297.31938171 117.50281906 C-292.53910996 119.67649569 -292.53910996 119.67649569 -287.39945984 120.31141281 C-287.39945984 120.97141281 -287.39945984 121.63141281 -287.39945984 122.31141281 C-289.46277113 121.68909637 -291.52507674 121.06344496 -293.58695984 120.43641281 C-294.73551453 120.08836594 -295.88406921 119.74031906 -297.06742859 119.38172531 C-300.39945984 118.31141281 -300.39945984 118.31141281 -303.13774109 117.17860031 C-305.46260796 116.13240966 -305.46260796 116.13240966 -308.39945984 116.31141281 C-308.54975693 126.61959319 -308.11552744 136.83280567 -307.55757296 147.12104511 C-306.33633433 170.09999286 -306.11551376 193.02892488 -306.1637404 216.035326 C-306.17279359 221.30675577 -306.17075832 226.57818486 -306.17037964 231.84962082 C-306.17130497 240.6866724 -306.17983111 249.52368885 -306.19364929 258.36072922 C-306.20936224 268.44400872 -306.21464659 278.52724999 -306.21391374 288.61054087 C-306.21322776 299.54116378 -306.2202241 310.47177282 -306.22936034 321.40239143 C-306.23144795 324.46683815 -306.23219536 327.53128248 -306.23259926 330.59572983 C-306.23898946 355.58010198 -306.55560983 380.53621068 -307.20442045 405.51202059 C-307.44127483 414.72432465 -307.61970409 423.93748681 -307.78837585 433.15125656 C-307.81086486 434.36967412 -307.81086486 434.36967412 -307.83380818 435.61270618 C-307.9261761 440.62336681 -308.0168243 445.63405699 -308.10664105 450.64476395 C-308.15450153 453.31219503 -308.20265329 455.97962071 -308.2508831 458.64704514 C-308.42072399 468.04377179 -308.58924976 477.44052106 -308.75663757 486.83729172 C-308.9102341 495.45750666 -309.06707253 504.0776587 -309.22533089 512.69778919 C-309.36348535 520.23200977 -309.49914672 527.76627284 -309.63303131 535.30057049 C-309.71201644 539.74276107 -309.79190085 544.18492998 -309.87443733 548.62705612 C-310.06771506 559.06676718 -310.23553178 569.50644616 -310.3681016 579.94710922 C-310.40022163 582.3688494 -310.43666288 584.79049896 -310.473629 587.21216965 C-310.53324691 591.23141222 -310.57532828 595.250519 -310.60528362 599.2700882 C-310.61869146 600.76399366 -310.63721884 602.25786415 -310.66148484 603.75163269 C-310.8465493 615.54841389 -310.00697128 627.67888034 -302.39945984 637.31141281 C-288.32561431 649.9346088 -272.46805523 651.89481754 -254.45676613 651.14791489 C-251.07005103 650.96324406 -247.68501398 650.76546319 -244.30007112 650.55149746 C-240.47312562 650.3103116 -236.64519127 650.08573268 -232.81733704 649.85950851 C-231.63912271 649.78944383 -231.63912271 649.78944383 -230.43710607 649.7179637 C-222.39955168 649.24402235 -214.35888832 648.84896284 -206.31620789 648.47352219 C-205.60815589 648.44036124 -204.90010389 648.4072003 -204.17059577 648.37303448 C-200.5160844 648.20218998 -196.86150405 648.03289136 -193.20686913 647.86471176 C-188.49522695 647.64786213 -183.78373906 647.42776822 -179.07226562 647.20728683 C-166.54755785 646.62162493 -154.02267222 646.03980744 -141.49769002 645.46004534 C-133.20353082 645.0761046 -124.90945912 644.69036843 -116.61553031 644.30147982 C-112.71395472 644.11865419 -108.81233654 643.93690808 -104.91057396 643.75811386 C-88.41609866 643.0018797 -71.94389085 642.11890298 -55.47118187 640.97885418 C-46.84731722 640.38816649 -38.24979156 639.96386632 -29.60649109 639.78406906 C-27.60317819 639.7328608 -25.59986562 639.68163606 -23.59657097 639.62971878 C-21.53600494 639.57700781 -19.47539176 639.52677295 -17.41474915 639.47715378 C6.93858881 638.88543172 31.22812592 637.8988207 55.54194641 636.35120773 C69.80546764 635.44603267 84.04440612 634.85890087 98.33100891 634.49110031 C103.1007263 634.36673973 107.84147394 634.14879022 112.60054016 633.81141281 C119.66044648 633.31624404 126.71384095 633.12623845 133.78804016 632.93641281 C150.93556944 632.4626482 168.06146295 631.57650376 185.19270706 630.70858383 C201.91174498 629.8619419 218.62430788 629.01766589 235.36054993 628.60242844 C238.44147608 628.52381749 241.52059365 628.42165055 244.60054016 628.31141281 C245.88605774 628.27693039 247.17157532 628.24244797 248.49604797 628.20692062 C249.83562732 628.15207861 251.17514809 628.0957848 252.51460266 628.03797531 C253.72325989 627.99495285 254.93191711 627.95193039 256.17720032 627.90760422 C261.65123782 626.95427377 265.04143118 624.45862841 268.23993969 620.0016098 C271.70314839 614.2513117 271.29509846 608.35398535 271.23977661 601.81367111 C271.24609495 600.4439312 271.2546019 599.07419994 271.26509684 597.70448565 C271.28754062 593.95357596 271.27905988 590.20328375 271.26541126 586.45235538 C271.25612896 582.39975651 271.27570963 578.34728321 271.29173279 574.2947197 C271.31557509 567.26784017 271.32117923 560.24113605 271.31438637 553.21422195 C271.30454904 543.00669517 271.32239156 532.79936079 271.34675368 522.59186515 C271.38567932 505.96647578 271.40230645 489.34114149 271.40498352 472.71570969 C271.40761328 456.67726892 271.42058063 440.63889378 271.44795227 424.60047531 C271.44962565 423.61785033 271.45129903 422.63522536 271.45302311 421.62282386 C271.46149191 416.68678217 271.47016078 411.75074085 271.47891581 406.81469965 C271.58097888 348.98031958 271.61461433 291.14587952 271.60054016 233.31141281 C270.82598291 233.26638469 270.05142567 233.22135656 269.25339699 233.17496395 C239.28546802 231.43039109 209.34995002 229.6138025 179.47554016 226.62391281 C178.38872955 226.51568192 177.30191895 226.40745102 176.18217468 226.2959404 C173.13098735 225.98968393 170.08044668 225.6779386 167.03022766 225.36219406 C165.69546638 225.22490891 165.69546638 225.22490891 164.33374023 225.08485031 C160.3663326 224.66249474 156.50968082 224.12288168 152.60054016 223.31141281 C150.9440977 223.1425634 149.28479351 223.00005724 147.62397766 222.88172531 C146.70616516 222.80824875 145.78835266 222.73477219 144.84272766 222.65906906 C142.92408846 222.51007392 141.0047768 222.36950885 139.08491516 222.23719406 C137.7120636 222.12311203 137.7120636 222.12311203 136.31147766 222.00672531 C135.47922668 221.94501144 134.64697571 221.88329758 133.789505 221.81971359 C131.14420703 221.20544743 130.23211395 220.4587604 128.60054016 218.31141281 C127.68429315 215.53015978 126.91664783 212.83586536 126.22554016 209.99891281 C125.90420105 208.72648727 125.90420105 208.72648727 125.57637024 207.42835617 C122.56002865 195.35084941 119.89874805 183.1910748 117.21446228 171.03661728 C116.53845538 167.97643699 115.8616991 164.91642289 115.18458557 161.85648727 C114.83641763 160.28264186 114.48855875 158.70872804 114.14100647 157.13474655 C112.0027137 147.45786419 109.78251755 137.80983707 107.41304016 128.18641281 C104.83546744 117.68036781 102.75521555 107.11034357 100.76460266 96.47938156 C99.68657143 90.72298276 98.5452031 84.98219386 97.35054016 79.24891281 C97.18731262 78.45114426 97.02408508 77.6533757 96.85591125 76.83143234 C96.35669544 73.2746169 96.35669544 73.2746169 94.60054016 70.31141281 C94.12304481 68.17988567 93.69843887 66.03647379 93.29585266 63.88953781 C93.17120636 63.23370712 93.04656006 62.57787643 92.9181366 61.90217209 C92.5169231 59.78926227 92.12080738 57.67544247 91.72554016 55.56141281 C88.87563258 38.08890307 88.87563258 38.08890307 83.60054016 21.31141281 C21.60325993 16.75136247 -41.28556642 16.1422122 -103.33311462 20.18183517 Z " fill="#1F1F1F" transform="translate(551.3994598388672,106.6885871887207)"/>
<path d="M0 0 C3.2098322 -0.00108189 6.41964313 -0.00580541 9.62947083 -0.01112747 C14.76770846 -0.01802014 19.90579266 -0.01230766 25.04401016 0.0032692 C26.94461681 0.00808093 28.84523352 0.01000961 30.74584579 0.00868607 C41.51671396 0.00695875 52.03750012 0.4750342 62.72596741 1.84405136 C68.21877619 2.50660882 73.69931036 2.75571865 79.22554016 2.93641281 C80.24132141 2.97508469 81.25710266 3.01375656 82.30366516 3.05360031 C84.73580887 3.14537932 87.16798657 3.23139032 89.60054016 3.31141281 C89.93054016 4.96141281 90.26054016 6.61141281 90.60054016 8.31141281 C91.18190735 8.40293625 91.76327454 8.49445969 92.36225891 8.58875656 C95.15411075 9.49013979 96.38649413 10.76481909 98.41304016 12.87391281 C99.10913391 13.59578781 99.80522766 14.31766281 100.52241516 15.06141281 C103.03693657 17.78390215 105.46996987 20.56768819 107.88569641 23.37781906 C110.10101396 25.87572837 112.46952187 28.1916627 114.85054016 30.53016281 C117.30688865 33.03037466 119.56363384 35.68821797 121.85054016 38.34266281 C124.05003078 40.81708976 126.39336252 43.11758799 128.75556946 45.43519211 C130.54048074 47.25033611 132.21003392 49.12031518 133.87007141 51.04969406 C137.41447968 55.12599768 141.07818145 59.07342162 144.78804016 62.99891281 C146.10742584 64.40090351 147.42643117 65.80325222 148.74507141 67.20594406 C149.39427551 67.89639816 150.04347961 68.58685226 150.71235657 69.29822922 C156.82960648 75.82044835 162.89716428 82.38913871 168.85054016 89.06141281 C173.70657283 94.48457338 178.71664242 99.76014451 183.71650696 105.05018234 C188.12535341 109.72192494 192.45052362 114.45100523 196.72163391 119.24891281 C199.03797397 121.79158963 201.4708432 124.19559533 203.92475891 126.60438156 C205.71107459 128.42400849 207.37531852 130.31595198 209.03804016 132.24891281 C211.45671795 135.05717628 213.95953699 137.71111874 216.60054016 140.31141281 C219.85083999 143.51170803 222.84778261 146.85365857 225.81929016 150.31141281 C227.67479226 152.39478359 229.61277117 154.35422488 231.60054016 156.31141281 C236.29501951 160.94220736 240.63588323 165.82669964 244.72554016 170.99891281 C247.56025458 174.49506059 250.82699862 177.549064 254.03022766 180.70594406 C258.57844773 185.20330544 262.98539966 189.74469954 267.12788391 194.62000656 C268.58345074 196.34720809 268.58345074 196.34720809 270.29194641 197.90906906 C271.60054016 199.31141281 271.60054016 199.31141281 271.60054016 201.31141281 C272.15741516 201.51766281 272.71429016 201.72391281 273.28804016 201.93641281 C276.59657248 203.90364824 278.31610296 206.20203995 280.60054016 209.31141281 C280.60054016 210.30141281 280.60054016 211.29141281 280.60054016 212.31141281 C281.59054016 212.31141281 282.58054016 212.31141281 283.60054016 212.31141281 C283.60054016 213.63141281 283.60054016 214.95141281 283.60054016 216.31141281 C280.5507002 217.83633279 277.95820326 217.54703829 274.60054016 217.31141281 C273.08491516 216.03016281 273.08491516 216.03016281 271.60054016 214.31141281 C271.06815735 213.71844406 270.53577454 213.12547531 269.98725891 212.51453781 C269.42651672 211.87000656 268.86577454 211.22547531 268.28804016 210.56141281 C267.67573547 209.85887375 267.06343079 209.15633469 266.43257141 208.43250656 C264.7685158 206.50589207 263.12070104 204.566648 261.47554016 202.62391281 C258.97924568 199.70718978 256.34939426 196.99481801 253.60054016 194.31141281 C248.98931346 189.79788159 244.58730863 185.20510703 240.38179016 180.31141281 C238.52628806 178.22804203 236.58830915 176.26860074 234.60054016 174.31141281 C231.35024033 171.11111759 228.35329771 167.76916705 225.38179016 164.31141281 C222.89796588 161.52255748 220.23342579 158.93454298 217.57319641 156.31531906 C215.02716187 153.7289513 212.6803246 150.99606001 210.31538391 148.24500656 C208.64049717 146.35646684 206.90106429 144.57985634 205.10054016 142.81141281 C202.06878831 139.82682154 199.26451271 136.7009528 196.48335266 133.48328781 C191.26119478 127.45938785 185.93506653 121.58308955 180.25288391 115.99110031 C178.60674225 114.31771754 177.06895624 112.59048236 175.53804016 110.81141281 C171.95181628 106.65335369 168.22165641 102.6373662 164.47554016 98.62391281 C163.57823181 97.66098312 163.57823181 97.66098312 162.66279602 96.67860031 C160.14862647 93.99085912 157.62120391 91.33207656 155.01850891 88.72938156 C152.28126567 85.99213832 149.65362929 83.16387233 147.03804016 80.31141281 C145.97557638 79.15643158 144.91307532 78.00148463 143.85054016 76.84656906 C143.31171204 76.26020676 142.77288391 75.67384445 142.21772766 75.06971359 C139.66263886 72.29167169 137.09979544 69.52080555 134.53804016 66.74891281 C130.77592899 62.67653069 127.02736451 58.59225603 123.28804016 54.49891281 C118.2399482 48.98191245 113.12729344 43.52735012 107.98994446 38.09339523 C104.23987019 34.11282712 100.61161148 30.05621883 97.07221985 25.88660812 C95.66747097 24.19977082 95.66747097 24.19977082 93.60054016 23.31141281 C93.60054016 24.96141281 93.60054016 26.61141281 93.60054016 28.31141281 C92.28054016 28.31141281 90.96054016 28.31141281 89.60054016 28.31141281 C88.94054016 28.97141281 88.28054016 29.63141281 87.60054016 30.31141281 C85.41769512 27.65403624 84.32420331 25.65572018 83.60054016 22.31141281 C21.60325993 17.75136247 -41.28556642 17.1422122 -103.33311462 21.18183517 C-106.56613244 21.38457323 -109.80113808 21.54693188 -113.03617859 21.71375656 C-128.78534019 22.57929302 -144.46172783 24.14279747 -160.14945984 25.74891281 C-161.17157562 25.85232986 -162.19369141 25.95574692 -163.2467804 26.06229782 C-175.39943953 27.30099659 -187.42324012 28.83739141 -199.45097351 30.972332 C-202.36271103 31.47904036 -205.28266402 31.92733197 -208.20414734 32.37391281 C-209.72781921 32.60981125 -209.72781921 32.60981125 -211.28227234 32.85047531 C-213.2999613 33.16129424 -215.31820855 33.46850764 -217.33695984 33.77235031 C-223.56927474 34.74465519 -229.62846138 36.04061743 -235.7339325 37.62440109 C-238.85486186 38.42878791 -241.99204765 39.10380702 -245.14945984 39.74891281 C-250.44449362 40.8679967 -255.70843817 42.07621815 -260.96195984 43.37391281 C-261.62872742 43.53625412 -262.295495 43.69859543 -262.98246765 43.86585617 C-266.59381611 44.76961127 -269.95622534 45.91328416 -273.39945984 47.31141281 C-275.6226183 47.95745886 -277.85243114 48.58086304 -280.08695984 49.18641281 C-286.0630452 50.88149292 -291.72472429 52.79369287 -297.39945984 55.31141281 C-298.01160339 55.57937668 -298.62374695 55.84734055 -299.25444031 56.12342453 C-319.98255145 64.49322098 -319.98255145 64.49322098 -334.24711609 80.36610031 C-335.05258851 87.19064848 -332.30936363 91.4794865 -328.58695984 96.99891281 C-325.88116925 99.85932001 -323.00800442 102.64958307 -319.39945984 104.31141281 C-317.31778112 104.04102873 -317.31778112 104.04102873 -315.39945984 103.31141281 C-314.06612651 102.97807948 -312.73279317 102.64474614 -311.39945984 102.31141281 C-309.10932331 105.74661761 -309.22103011 107.29674381 -309.39945984 111.31141281 C-308.58219421 111.56664719 -307.76492859 111.82188156 -306.92289734 112.08485031 C-302.85418944 113.50122978 -298.9582691 115.18647234 -295.02445984 116.93641281 C-294.28840515 117.26125656 -293.55235046 117.58610031 -292.79399109 117.92078781 C-290.99475015 118.71525784 -289.19695488 119.51300053 -287.39945984 120.31141281 C-287.39945984 120.97141281 -287.39945984 121.63141281 -287.39945984 122.31141281 C-292.81113198 121.99307916 -297.1438899 120.75832041 -302.20024109 118.76063156 C-303.3633783 118.3039006 -304.5265155 117.84716965 -305.72489929 117.37659836 C-306.60750427 117.02508713 -307.49010925 116.6735759 -308.39945984 116.31141281 C-308.34411072 117.04327805 -308.2887616 117.77514328 -308.23173523 118.52918625 C-307.96957746 122.03953613 -307.71582916 125.5504541 -307.46195984 129.06141281 C-307.33144226 130.78424484 -307.33144226 130.78424484 -307.19828796 132.54188156 C-305.24825175 159.8423886 -305.24760227 187.16116967 -305.26513433 214.51441693 C-305.26771557 219.82597604 -305.26530421 225.13753367 -305.26374817 230.44909286 C-305.26194057 239.37577759 -305.26429294 248.30245397 -305.26908875 257.22913742 C-305.27450344 267.4228691 -305.27278335 277.61658068 -305.26726234 287.81031185 C-305.26266023 296.67517118 -305.26211538 305.54002461 -305.26470101 314.40488476 C-305.26622872 319.64901012 -305.26655837 324.8931262 -305.26316452 330.1372509 C-305.24914988 355.27970229 -305.54617848 380.39177735 -306.20351857 405.52554876 C-306.44189083 414.73332223 -306.6199551 423.94197521 -306.78837585 433.15125656 C-306.80336534 433.96358273 -306.81835482 434.77590891 -306.83379853 435.61285102 C-306.92616833 440.6234634 -307.01682517 445.63410519 -307.10664105 450.64476395 C-307.15450153 453.31219503 -307.20265329 455.97962071 -307.2508831 458.64704514 C-307.42072399 468.04377179 -307.58924976 477.44052106 -307.75663757 486.83729172 C-307.9102341 495.45750666 -308.06707253 504.0776587 -308.22533089 512.69778919 C-308.36348535 520.23200977 -308.49914672 527.76627284 -308.63303131 535.30057049 C-308.71201644 539.74276107 -308.79190085 544.18492998 -308.87443733 548.62705612 C-309.06771506 559.06676718 -309.23553178 569.50644616 -309.3681016 579.94710922 C-309.40022163 582.3688494 -309.43666288 584.79049896 -309.473629 587.21216965 C-309.53324691 591.23141222 -309.57532828 595.250519 -309.60528362 599.2700882 C-309.61869146 600.76399366 -309.63721884 602.25786415 -309.66148484 603.75163269 C-309.83317316 614.69576292 -309.35266468 627.21430315 -302.39945984 636.31141281 C-290.25209608 647.16698602 -276.12748739 650.40033804 -260.39945984 651.31141281 C-260.97290921 654.17865968 -261.26091134 655.17286432 -263.39945984 657.31141281 C-265.35258484 657.58485031 -265.35258484 657.58485031 -267.64945984 657.68641281 C-272.2274564 658.07400677 -274.59163706 659.74527138 -278.39945984 662.31141281 C-288.5007904 663.03113261 -302.25838962 660.65164131 -310.38774109 654.32703781 C-314.97412216 649.73175115 -318.7388079 644.64763541 -322.39945984 639.31141281 C-323.00145203 638.469655 -323.60344421 637.62789719 -324.22367859 636.76063156 C-333.31341426 622.40480218 -332.64427667 604.66784956 -332.52836609 588.32313156 C-332.52112936 586.47158133 -332.51446394 584.62002879 -332.5083313 582.76847458 C-332.48545543 576.94933954 -332.44411796 571.13041594 -332.39945984 565.31141281 C-332.39266205 564.37851299 -332.38586426 563.44561317 -332.37886047 562.48444366 C-332.29055365 550.42364823 -332.16903781 538.36338851 -332.02714539 526.30311203 C-331.9829191 522.54076564 -331.94130842 518.77840515 -331.90214539 515.01600266 C-331.70017629 495.62193274 -331.42697168 476.24216729 -330.75822449 456.85813522 C-330.44245746 447.46735224 -330.26045882 438.0813726 -330.15336609 428.68641281 C-330.14136232 427.63886007 -330.14136232 427.63886007 -330.12911606 426.57014465 C-330.09677304 423.70931214 -330.06528965 420.84847163 -330.03474045 417.9876194 C-329.73589597 390.01389326 -329.15083538 362.06822937 -328.20048523 334.10828781 C-328.1115671 331.47808944 -328.02294808 328.84788094 -327.93461609 326.21766281 C-327.91244585 325.55855911 -327.89027561 324.89945541 -327.86743355 324.22037888 C-327.47161836 312.36689301 -327.1716981 300.51198222 -326.89555359 288.65516281 C-326.85342849 286.8658149 -326.8112786 285.07646757 -326.769104 283.28712082 C-326.60457457 276.2752269 -326.4401774 269.2633468 -326.29084778 262.25111008 C-325.85191584 241.67498133 -325.04520334 221.18455786 -323.62583923 200.65198898 C-323.31790248 196.10790851 -323.05245942 191.56209031 -322.80180359 187.01453781 C-322.74163559 185.93127213 -322.74163559 185.93127213 -322.68025208 184.82612228 C-322.60343047 183.43529974 -322.5270731 182.04445147 -322.45121765 180.6535759 C-322.33001748 178.43429206 -322.20662048 176.21513637 -322.08305359 173.99598312 C-321.73533354 167.71687922 -321.39523921 161.43805726 -321.12211609 155.15516281 C-320.79706748 147.68868614 -320.35072364 140.34400269 -319.33695984 132.93641281 C-319.01553357 130.39585956 -318.70279932 127.85418902 -318.39945984 125.31141281 C-318.24090515 124.02750656 -318.08235046 122.74360031 -317.91899109 121.42078781 C-317.65709831 117.79224443 -317.54214686 114.84900649 -318.39945984 111.31141281 C-321.33296406 108.37224546 -324.63712395 106.96977376 -328.39945984 105.31141281 C-334.58420939 101.20590454 -339.07700154 95.33990503 -341.39945984 88.31141281 C-342.82286412 77.22528334 -340.48516275 69.93265404 -333.78227234 61.20594406 C-325.79704384 52.31572299 -313.51002922 45.48456407 -302.39945984 41.31141281 C-301.2560614 40.86539719 -300.11266296 40.41938156 -298.93461609 39.95985031 C-272.7690468 29.85588976 -246.13800447 23.21074223 -218.62773132 17.93690109 C-215.79156358 17.38738421 -212.96273632 16.8109172 -210.13383484 16.22547531 C-205.26744514 15.24872315 -200.38330273 14.56959766 -195.46195984 13.93641281 C-188.05435153 12.96053343 -180.66435284 11.90628577 -173.27885437 10.77503586 C-162.0793744 9.06309946 -150.91977558 7.65493232 -139.62992859 6.70594406 C-137.1735218 6.49632925 -134.82975684 6.2128816 -132.39555359 5.79188156 C-127.5776439 5.01925719 -122.72629069 4.91835858 -117.85649109 4.70594406 C-117.08434265 4.66856125 -116.31219421 4.63117844 -115.51664734 4.59266281 C-114.82168152 4.56236984 -114.1267157 4.53207687 -113.41069031 4.50086594 C-111.4078319 4.36740783 -111.4078319 4.36740783 -109.55116272 3.82387924 C-107.32420164 3.29348873 -105.24424378 3.0744475 -102.96098328 2.9224968 C-102.06624298 2.86253525 -101.17150269 2.8025737 -100.24964905 2.74079514 C-98.76919601 2.65006729 -98.76919601 2.65006729 -97.25883484 2.55750656 C-96.1933139 2.49210678 -95.12779297 2.426707 -94.02998352 2.35932541 C-62.68415957 0.50857774 -31.39692388 0.00395904 0 0 Z " fill="#1B1B1B" transform="translate(551.3994598388672,106.6885871887207)"/>
<path d="M0 0 C3.2221248 1.38691459 5.03354401 2.92436673 7.25 5.625 C9.72391299 8.55352094 12.26267394 11.3157229 15 14 C18.27202128 17.2215855 21.29316055 20.58592145 24.28515625 24.06640625 C25.96004299 25.95494597 27.69947587 27.73155648 29.5 29.5 C31.79326036 31.75797943 33.96428028 34.05996504 36.0625 36.5 C40.20876085 41.31684062 44.57535027 45.92460331 48.93774414 50.54492188 C51.57852974 53.35334729 54.17490872 56.16470113 56.6171875 59.1484375 C58.94848694 61.93835323 61.39591041 64.46529837 64 67 C69.14792454 72.07343689 74.20936997 77.1400983 78.9140625 82.62890625 C81.7527651 85.8556712 84.68775317 88.9880188 87.625 92.125 C88.52762573 93.08937988 88.52762573 93.08937988 89.44848633 94.07324219 C90.68336845 95.39197534 91.9184778 96.71049573 93.15380859 98.02880859 C107.32972453 113.16453264 107.32972453 113.16453264 113.4609375 120.27734375 C115.62353771 122.69791911 117.93894603 124.94894253 120.25390625 127.22265625 C122.06477643 129.06593574 123.75321354 130.97822799 125.4375 132.9375 C127.85617779 135.74576347 130.35899683 138.39970593 133 141 C136.25029983 144.20029522 139.24724245 147.54224576 142.21875 151 C144.0742521 153.08337078 146.01223101 155.04281207 148 157 C152.69447935 161.63079455 157.03534307 166.51528683 161.125 171.6875 C164.02064452 175.2587949 167.3410563 178.37568692 170.67578125 181.53515625 C171.54589844 182.36917969 172.41601562 183.20320312 173.3125 184.0625 C174.19550781 184.89910156 175.07851563 185.73570312 175.98828125 186.59765625 C178 189 178 189 178 193 C177.14269287 192.94013916 176.28538574 192.88027832 175.40209961 192.81860352 C164.79374212 192.09302361 154.18055585 191.5010426 143.5625 190.9375 C141.8483025 190.84579263 140.13410976 190.75399624 138.41992188 190.66210938 C134.28000186 190.44038406 130.14002004 190.21984956 126 190 C126.639375 189.690625 127.27875 189.38125 127.9375 189.0625 C129.93610821 188.1654837 129.93610821 188.1654837 131 187 C133.53215362 186.89859455 136.03050236 186.8592085 138.5625 186.875 C139.29686279 186.87693359 140.03122559 186.87886719 140.7878418 186.88085938 C144.3312784 186.90921632 147.80050624 186.98353033 151.3125 187.5 C156.2202778 188.1654614 161.05568682 188.0817993 166 188 C166.33 187.01 166.66 186.02 167 185 C166.01193359 184.94465088 165.02386719 184.88930176 164.00585938 184.83227539 C160.30810933 184.62440916 156.61057214 184.412943 152.91308594 184.20043945 C151.31873996 184.10930171 149.72433932 184.01911478 148.12988281 183.92993164 C145.82601821 183.80089792 143.52237785 183.66834234 141.21875 183.53515625 C140.51633179 183.49656998 139.81391357 183.4579837 139.09020996 183.41822815 C135.08736606 183.18300209 131.14996755 182.77105454 127.17199707 182.2485199 C122.79568272 181.74778202 118.3961441 181.53746367 114 181.28125 C112.96488281 181.21844849 111.92976562 181.15564697 110.86328125 181.09094238 C107.57566136 180.89153872 104.28786241 180.69536154 101 180.5 C96.66648447 180.24250678 92.33319059 179.98164867 88 179.71875 C87.01644531 179.661427 86.03289062 179.604104 85.01953125 179.54504395 C80.8623689 179.29256801 76.73785341 179.00254509 72.60742188 178.46118164 C69.77385441 178.09893144 67.12772992 177.88141375 64.28125 177.90234375 C63.10175781 177.90717773 63.10175781 177.90717773 61.8984375 177.91210938 C61.10695313 177.92048828 60.31546875 177.92886719 59.5 177.9375 C58.67757812 177.94201172 57.85515625 177.94652344 57.0078125 177.95117188 C55.00517604 177.96281511 53.00257773 177.98074444 51 178 C47.25374357 164.14512984 44.61563283 150.10504222 42 136 C41.01 136 40.02 136 39 136 C39.76650284 142.97114165 41.12792816 149.73136737 42.62695312 156.578125 C43.72754455 161.83516242 44.37127067 166.62541513 44 172 C43.34 172.99 42.68 173.98 42 175 C39.3915459 167.77719852 37.64939369 160.4838053 36.01037598 152.98608398 C35.25227258 149.51852028 34.47953011 146.05422412 33.70703125 142.58984375 C33.5575705 141.91819183 33.40810974 141.24653992 33.25411987 140.55453491 C32.16507822 135.68143108 31.00055294 130.83388018 29.75 126 C28.50874054 121.16645151 27.44486742 116.33774325 26.5 111.4375 C25.30415224 105.26538253 23.76138288 99.25557907 22.09765625 93.1953125 C20.77755103 88.2667601 19.67522404 83.29120461 18.5625 78.3125 C16.90444842 70.91917883 15.1971879 63.54224772 13.375 56.1875 C13.18107666 55.39448486 12.98715332 54.60146973 12.78735352 53.78442383 C11.84513299 50.01833528 10.79956519 46.35302196 9.5078125 42.69140625 C7.61823662 37.15678917 6.58487535 31.4869459 5.5 25.75 C5.07045818 23.53747885 4.63948152 21.32523576 4.20703125 19.11328125 C3.89886475 17.53474365 3.89886475 17.53474365 3.58447266 15.92431641 C2.5175418 10.58609678 1.29307531 5.28794212 0 0 Z " fill="#FCFCFC" transform="translate(645,130)"/>
<path d="M0 0 C0.625 2.375 0.625 2.375 0 5 C-3.65265704 8.96323416 -7.7211325 12.4412405 -11.8125 15.9375 C-12.42689941 16.4732666 -13.04129883 17.0090332 -13.67431641 17.56103516 C-16.94275938 20.38162824 -20.12117332 22.71940364 -23.875 24.875 C-26.36091933 26.74077602 -26.9206719 27.66796203 -27.65234375 30.73046875 C-28.9068621 56.83056994 -15.15779623 83.69829711 1.57421875 102.796875 C15.04106816 117.01369423 33.10508354 126.78693272 52.85742188 127.42236328 C66.44325335 127.51061994 76.83508769 123.94364047 88.7265625 117.64453125 C92 116 92 116 94 116 C94 115.34 94 114.68 94 114 C99.47619048 109 99.47619048 109 102 109 C102 108.34 102 107.68 102 107 C103.62102968 105.28891311 105.29503463 103.62746694 107 102 C107.680625 101.21625 108.36125 100.4325 109.0625 99.625 C111 98 111 98 113.1875 98.1875 C115 99 115 99 116 100 C116.37890625 102.17578125 116.37890625 102.17578125 116 105 C114.38301878 107.29749846 112.85822027 109.17500162 110.9375 111.1875 C110.40455322 111.75339844 109.87160645 112.31929687 109.32250977 112.90234375 C94.31282775 128.2379947 75.25705344 135.811679 54 136.4375 C42.56480429 136.20137501 31.10656548 133.43923506 21 128 C20.05769531 127.49597656 19.11539063 126.99195313 18.14453125 126.47265625 C8.38758377 121.01915328 -0.07234549 114.8054135 -7 106 C-7.61359375 105.28457031 -8.2271875 104.56914063 -8.859375 103.83203125 C-21.21993818 89.14787383 -30.77982744 69.9856007 -34 51 C-35.81111219 52.81111219 -35.26855977 55.70239311 -35.38671875 58.1484375 C-35.88600255 65.80153716 -37.20449958 73.12365811 -38.8125 80.625 C-39.06064453 81.84445312 -39.30878906 83.06390625 -39.56445312 84.3203125 C-41.81068218 95.01990738 -44.75411071 105.30547872 -49.75 115.0625 C-50.26542358 116.07582397 -50.26542358 116.07582397 -50.79125977 117.10961914 C-57.91706667 130.76565764 -67.53672088 142.8640634 -82 149 C-93.10837676 151.86045089 -102.1038476 149.59174604 -112 144.4375 C-114 143 -114 143 -116 140 C-115.625 137.3125 -115.625 137.3125 -115 135 C-109.72002631 134.34000329 -107.01969193 135.90944405 -102.83203125 138.80859375 C-98.25560437 141.7847349 -93.24838519 141.50766742 -88 141 C-77.00411076 138.48471158 -69.35295764 130.67111176 -63.3125 121.5 C-46.39762726 94.3529009 -43.70273879 61.19616684 -43 30 C-43.74564209 29.72075684 -44.49128418 29.44151367 -45.25952148 29.15380859 C-47.70436209 28.1244708 -49.67134333 27.03377201 -51.84765625 25.5390625 C-52.53537109 25.06726563 -53.22308594 24.59546875 -53.93164062 24.109375 C-54.98641602 23.37460937 -54.98641602 23.37460937 -56.0625 22.625 C-56.76955078 22.14289063 -57.47660156 21.66078125 -58.20507812 21.1640625 C-65.24780071 16.2969791 -65.24780071 16.2969791 -68 13 C-68.25 10.25 -68.25 10.25 -68 8 C-61.28961865 5.53584197 -54.60177475 3.98668652 -47.578125 2.703125 C-46.51511169 2.50523376 -45.45209839 2.30734253 -44.35687256 2.10345459 C-42.1254032 1.69019219 -39.89331329 1.2802679 -37.66064453 0.87353516 C-34.24415424 0.24893128 -30.83110879 -0.39252713 -27.41796875 -1.03515625 C-25.24237557 -1.43591815 -23.06660018 -1.83569242 -20.890625 -2.234375 C-19.87284973 -2.42698914 -18.85507446 -2.61960327 -17.80645752 -2.8180542 C-16.85486755 -2.98863342 -15.90327759 -3.15921265 -14.92285156 -3.33496094 C-13.67450531 -3.56454498 -13.67450531 -3.56454498 -12.40093994 -3.79876709 C-7.63306732 -4.19838262 -3.73594885 -2.98875908 0 0 Z " fill="#0B0B0B" transform="translate(522,454)"/>
<path d="M0 0 C1.6787158 3.06274668 2.59919849 5.97314755 3.40234375 9.3671875 C3.65129395 10.41092529 3.90024414 11.45466309 4.15673828 12.5300293 C4.41438965 13.63386963 4.67204102 14.73770996 4.9375 15.875 C5.3394458 17.57039917 5.3394458 17.57039917 5.74951172 19.30004883 C7.1125927 25.08255232 8.4215718 30.86982225 9.625 36.6875 C10.76841816 42.16665405 12.2591493 47.48597519 13.83203125 52.85546875 C17.89967388 67.04052574 21.21865431 81.44611464 24.140625 95.90625 C24.82122957 99.23894632 25.62731683 102.52904267 26.46875 105.82519531 C27.30693879 109.25653069 28.02019193 112.71326613 28.75024414 116.16894531 C30.5561104 124.71346607 32.51417594 133.09727782 35.02734375 141.4609375 C36.46059159 146.67588748 37.53522877 151.9551981 38.60571289 157.25488281 C39.60670057 162.20985075 40.7397765 167.10408747 42 172 C45.65615084 164.68769832 41.40526443 153.99435415 39.68945312 146.58007812 C39.46064453 145.54947266 39.23183594 144.51886719 38.99609375 143.45703125 C38.78138428 142.52866455 38.5666748 141.60029785 38.34545898 140.64379883 C37.97657912 137.82075992 38.28649238 135.73970816 39 133 C40.32 133.33 41.64 133.66 43 134 C43.13575439 134.72477539 43.27150879 135.44955078 43.41137695 136.19628906 C44.04139905 139.54823056 44.67692311 142.89910751 45.3125 146.25 C45.63250977 147.95929688 45.63250977 147.95929688 45.95898438 149.703125 C47.90002339 162.93802653 47.90002339 162.93802653 53 175 C56.21395302 175.31303065 56.21395302 175.31303065 60.015625 175.09765625 C65.96781715 174.96260942 71.80277848 175.09931688 77.734375 175.62109375 C78.46642151 175.68516418 79.19846802 175.74923462 79.95269775 175.81524658 C81.45299822 175.94968416 82.95310158 176.08633898 84.45300293 176.22515869 C88.3839979 176.58855167 92.31693139 176.92942744 96.25 177.26953125 C97.39610748 177.36908112 97.39610748 177.36908112 98.56536865 177.47064209 C105.37470436 178.05231254 112.18499626 178.45619919 119.01464844 178.70874023 C122.90265424 178.85782577 126.69920034 179.21100496 130.55371094 179.72802734 C137.11575873 180.45758036 143.7306791 180.72713534 150.3203125 181.125 C152.32311121 181.24684327 154.3256239 181.37335961 156.328125 181.5 C157.5130957 181.5721875 158.69806641 181.644375 159.91894531 181.71875 C162.41200236 181.94632541 164.60942804 182.29211935 167 183 C166.67 184.32 166.34 185.64 166 187 C160.39137675 187.09278972 155.01311731 187.04420843 149.453125 186.2265625 C145.82404096 185.89139232 142.20526033 185.88459147 138.5625 185.875 C137.83909424 185.87048828 137.11568848 185.86597656 136.37036133 185.86132812 C132.89500639 185.55714212 132.89500639 185.55714212 130 187 C127.81812555 187.08490867 125.63342407 187.09847366 123.44995117 187.08325195 C122.77826747 187.07924787 122.10658377 187.07524378 121.41454601 187.07111835 C109.28552989 186.98019468 97.15989111 186.63563556 85.03540039 186.31030273 C81.86724117 186.22611963 78.69903697 186.1500974 75.53051758 186.08081055 C71.66787929 185.99626368 67.80583961 185.89768414 63.9438076 185.78899574 C62.48191696 185.75020225 61.01988656 185.71633926 59.55776405 185.68758202 C57.52427678 185.6465981 55.49121729 185.58583117 53.45825195 185.52416992 C51.72742119 185.480868 51.72742119 185.480868 49.96162415 185.43669128 C46.72193981 184.95900004 45.26663158 184.34322799 43 182 C42.75 178.8125 42.75 178.8125 43 176 C42.34 176 41.68 176 41 176 C41 175.01 41 174.02 41 173 C40.01 172.67 39.02 172.34 38 172 C36.8125 169.9375 36.8125 169.9375 36 168 C33.19954377 171.14591933 32.64738411 173.067064 32.8125 177.25 C32.83957031 178.14203125 32.86664062 179.0340625 32.89453125 179.953125 C32.94673828 180.96632813 32.94673828 180.96632813 33 182 C32.34 182 31.68 182 31 182 C27.01935186 165.15009738 23.15044847 148.2802739 19.42758179 131.371521 C17.32841334 121.84463223 15.14515797 112.34804357 12.8125 102.875 C10.23489758 92.36896486 8.15467484 81.79892785 6.1640625 71.16796875 C5.08603127 65.41156995 3.94466294 59.67078105 2.75 53.9375 C2.58677246 53.13973145 2.42354492 52.34196289 2.25537109 51.52001953 C1.75615528 47.96320409 1.75615528 47.96320409 0 45 C-0.48915421 42.80985027 -0.92556347 40.60788213 -1.33984375 38.40234375 C-1.46686172 37.73465469 -1.5938797 37.06696564 -1.7247467 36.37904358 C-2.13267518 34.23253933 -2.53546786 32.08511581 -2.9375 29.9375 C-3.46457487 27.13356385 -3.99470704 24.33022849 -4.52734375 21.52734375 C-4.65378265 20.85665863 -4.78022156 20.18597351 -4.91049194 19.4949646 C-5.57475699 16.02183519 -6.32397517 12.60271515 -7.25390625 9.19140625 C-8 6 -8 6 -7 3 C-6.34 3 -5.68 3 -5 3 C-4.34 2.34 -3.68 1.68 -3 1 C-2.34 1.33 -1.68 1.66 -1 2 C-0.67 1.34 -0.34 0.68 0 0 Z " fill="#1F1F1F" transform="translate(645,132)"/>
<path d="M0 0 C1.9041291 -0.00254539 1.9041291 -0.00254539 3.84672546 -0.00514221 C5.25027634 -0.00076471 6.65382566 0.00413826 8.05737305 0.00952148 C8.76961847 0.01086153 9.4818639 0.01220158 10.21569252 0.01358223 C25.87770253 0.04658338 41.52168106 0.47645295 57.17382812 0.99945068 C59.97565891 1.09182144 62.77763996 1.17906878 65.57963371 1.26633263 C72.8901509 1.49410741 80.19966752 1.74291588 87.50897217 2.00726318 C90.85640164 2.12324588 94.2038923 2.22083233 97.55200195 2.31469727 C99.44965049 2.37890863 101.34727634 2.44379613 103.24487305 2.50952148 C104.08253708 2.52796616 104.92020111 2.54641083 105.7832489 2.56541443 C110.29637377 2.74194908 113.55590393 3.16656726 117.0690918 6.13061523 C117.3815918 9.31811523 117.3815918 9.31811523 117.0690918 12.13061523 C109.37064009 16.56155689 101.64664325 20.94242971 93.8815918 25.25561523 C92.81545654 25.84802002 92.81545654 25.84802002 91.7277832 26.45239258 C82.30068763 31.67914792 72.83108858 36.80363621 63.2565918 41.75561523 C54.6824562 46.20977481 46.17188727 50.76549476 37.70166016 55.41381836 C32.51369579 58.25825241 27.3142664 61.07961765 22.09643555 63.86889648 C21.49916153 64.18826172 20.90188751 64.50762695 20.28651428 64.83666992 C17.26470478 66.45147828 14.24120644 68.06304564 11.21582031 69.67114258 C5.95454096 72.47594246 0.71880389 75.30080599 -4.4309082 78.30639648 C-5.24527344 78.77803223 -6.05963867 79.24966797 -6.89868164 79.7355957 C-8.35873573 80.58807486 -9.81086244 81.4543743 -11.25219727 82.33813477 C-16.03984311 85.12631927 -19.39743707 85.53025482 -24.9309082 85.13061523 C-25.4934082 82.50561523 -25.4934082 82.50561523 -24.9309082 79.13061523 C-22.28470947 76.58698234 -19.11080188 74.93039179 -15.9309082 73.13061523 C-14.89063477 72.51186523 -13.85036133 71.89311523 -12.77856445 71.25561523 C-6.21949411 67.40882942 0.45614178 63.89501692 7.28027344 60.54199219 C18.37119614 55.05170633 29.19323843 49.03131012 40.0690918 43.13061523 C42.1002524 42.03018979 44.13149938 40.92992376 46.1628418 39.82983398 C49.10633738 38.23552128 52.04976696 36.6410877 54.99291992 35.04614258 C62.68135961 30.88008699 70.37307053 26.72014477 78.0690918 22.56811523 C79.68944336 21.69219727 79.68944336 21.69219727 81.3425293 20.79858398 C82.87780273 19.97100586 82.87780273 19.97100586 84.4440918 19.12670898 C85.33870117 18.64387451 86.23331055 18.16104004 87.1550293 17.66357422 C90.76603686 15.76398336 94.41375487 13.94308427 98.0690918 12.13061523 C90.29852168 11.81145413 82.52765199 11.5001047 74.7565918 11.19311523 C73.59171234 11.14704132 72.42683289 11.10096741 71.22665405 11.05349731 C52.9921743 10.33835523 34.7608114 9.7944617 16.51513672 9.47265625 C15.67022675 9.45635162 14.82531677 9.440047 13.95480347 9.42324829 C12.40882814 9.39362372 10.86278389 9.36728101 9.31668091 9.3453064 C4.1898963 9.24513118 -0.84416269 8.77001672 -5.9309082 8.13061523 C-6.31154041 5.80452954 -6.64360765 3.47006259 -6.9309082 1.13061523 C-5.13301338 -0.66727959 -2.42443717 0.00157466 0 0 Z " fill="#0A0A0A" transform="translate(305.930908203125,461.869384765625)"/>
<path d="M0 0 C2.4451183 1.9136405 4.40503487 4.22515077 6.4375 6.5625 C7.68190136 7.94566375 8.92670445 9.32846616 10.171875 10.7109375 C10.80544922 11.4234668 11.43902344 12.13599609 12.09179688 12.87011719 C15.06940453 16.19363935 18.13065558 19.43703993 21.1875 22.6875 C26.20695917 28.05704137 31.18314661 33.46379954 36.140625 38.890625 C39.48238203 42.53661026 42.86849663 46.14092541 46.25 49.75 C50.41985704 54.20052586 54.51917643 58.68771395 58.49609375 63.3125 C60.10132569 65.11369532 61.78093356 66.80738074 63.5 68.5 C65.79326036 70.75797943 67.96428028 73.05996504 70.0625 75.5 C75.83531644 82.18566715 81.95657717 88.56018561 88 95 C89.23840114 96.32150224 90.47668307 97.64311621 91.71484375 98.96484375 C95.47500629 102.97802288 99.23731635 106.98918471 103 111 C107.38051126 115.66938578 111.76007641 120.33965183 116.13720703 125.01220703 C117.39291246 126.35217474 118.64910797 127.69168333 119.90576172 129.03076172 C131.79109796 141.69686421 131.79109796 141.69686421 135.75 146.3125 C139.14587432 150.26577793 142.86067953 153.87455254 146.56640625 157.53515625 C149.35179935 160.35631683 151.96118212 163.28846741 154.52734375 166.30859375 C155.98291058 168.03579528 155.98291058 168.03579528 157.69140625 169.59765625 C159 171 159 171 159 173 C159.556875 173.20625 160.11375 173.4125 160.6875 173.625 C163.99603232 175.59223543 165.7155628 177.89062714 168 181 C168 181.99 168 182.98 168 184 C168.99 184 169.98 184 171 184 C171 185.32 171 186.64 171 188 C167.95016004 189.52491998 165.3576631 189.23562548 162 189 C160.484375 187.71875 160.484375 187.71875 159 186 C158.46761719 185.40703125 157.93523437 184.8140625 157.38671875 184.203125 C156.82597656 183.55859375 156.26523437 182.9140625 155.6875 182.25 C155.07519531 181.54746094 154.46289062 180.84492188 153.83203125 180.12109375 C152.16797564 178.19447926 150.52016087 176.25523519 148.875 174.3125 C146.37870552 171.39577697 143.7488541 168.68340519 141 166 C136.38877329 161.48646877 131.98676846 156.89369421 127.78125 152 C125.9257479 149.91662922 123.98776899 147.95718793 122 146 C118.74970017 142.79970478 115.75275755 139.45775424 112.78125 136 C110.29742572 133.21114467 107.63288563 130.62313017 104.97265625 128.00390625 C102.42662171 125.41753849 100.07978443 122.6846472 97.71484375 119.93359375 C96.03995701 118.04505403 94.30052413 116.26844352 92.5 114.5 C89.46824815 111.51540873 86.66397255 108.38953999 83.8828125 105.171875 C78.66065462 99.14797504 73.33452636 93.27167674 67.65234375 87.6796875 C66.00620209 86.00630473 64.46841607 84.27906955 62.9375 82.5 C59.35127612 78.34194088 55.62111625 74.32595339 51.875 70.3125 C50.97769165 69.34957031 50.97769165 69.34957031 50.06225586 68.3671875 C47.54808631 65.6794463 45.02066375 63.02066375 42.41796875 60.41796875 C39.68072551 57.68072551 37.05308912 54.85245952 34.4375 52 C33.37503622 50.84501877 32.31253516 49.69007182 31.25 48.53515625 C30.71117187 47.94879395 30.17234375 47.36243164 29.6171875 46.75830078 C27.55974299 44.52132684 25.49714738 42.28914367 23.43432617 40.05712891 C18.25598133 34.45394187 13.09415162 28.83636708 7.95703125 23.1953125 C5.74025806 20.77939111 3.4778645 18.41229904 1.19921875 16.0546875 C0.55452637 15.38163574 -0.09016602 14.70858398 -0.75439453 14.01513672 C-2.02195476 12.69378762 -3.29744551 11.37999094 -4.58154297 10.07470703 C-5.15662598 9.47255371 -5.73170898 8.87040039 -6.32421875 8.25 C-6.84072998 7.71890625 -7.35724121 7.1878125 -7.8894043 6.640625 C-9 5 -9 5 -9 1 C-5.8404834 0.06384693 -3.27331794 -0.52391633 0 0 Z " fill="#0D0D0D" transform="translate(664,135)"/>
<path d="M0 0 C0.99 0.99 0.99 0.99 2 2 C1.9375 4.4375 1.9375 4.4375 1 7 C-3.41986997 10.37048434 -8.59891924 11.46047714 -13.875 12.875 C-19.94810455 14.55488283 -25.9774107 16.25950142 -31.9375 18.3125 C-39.43743366 20.8784839 -47.02649201 23.12077246 -54.625 25.375 C-64.41112412 28.27835374 -74.12891868 31.3215813 -83.79150391 34.61669922 C-89.87410908 36.67304472 -96.00002152 38.42934575 -102.20092773 40.08911133 C-108.87667586 41.90268589 -115.39853941 44.10270836 -121.9440918 46.33496094 C-129.19734859 48.78635188 -136.51449208 50.93461451 -143.89770508 52.95874023 C-147.79674801 54.03706749 -151.58694465 55.18379584 -155.35546875 56.66015625 C-159.35099908 58.12903825 -161.82010056 58.26124372 -166 58 C-167.35439668 55.29120665 -167.06501451 52.99066732 -167 50 C-161.61571556 48.23692214 -156.23033135 46.47725551 -150.84399414 44.72045898 C-149.01981059 44.12499347 -147.19590715 43.52866902 -145.37231445 42.93139648 C-134.86981984 39.4922706 -124.35243658 36.15792504 -113.73706055 33.08374023 C-108.76891011 31.64298634 -103.82125046 30.13888589 -98.875 28.625 C-96.90106865 28.02204709 -94.92710951 27.41918511 -92.953125 26.81640625 C-91.96634766 26.51492676 -90.97957031 26.21344727 -89.96289062 25.90283203 C-87.0755981 25.02303574 -84.18659259 24.14913829 -81.296875 23.27734375 C-71.35522465 20.27386024 -61.4447595 17.19381612 -51.5625 14 C-42.10628347 10.94459597 -32.60837035 8.07513656 -23.05297852 5.34570312 C-17.95517225 3.88576174 -12.91818202 2.34202528 -7.91772461 0.57470703 C-5.1915504 -0.24227758 -2.813605 -0.34312256 0 0 Z " fill="#0C0C0C" transform="translate(755,439)"/>
<path d="M0 0 C3 0.125 3 0.125 4 1.125 C4.33203125 3.9375 4.33203125 3.9375 4 7.125 C2.26171875 9.1875 2.26171875 9.1875 -0.3125 11.125 C-1.81876953 12.27742187 -1.81876953 12.27742187 -3.35546875 13.453125 C-4.56902866 14.34549855 -5.78398349 15.2359769 -7 16.125 C-8.45474856 17.20269119 -9.90915569 18.28084335 -11.36328125 19.359375 C-14.60219266 21.75471792 -17.85002486 24.13745921 -21.1015625 26.515625 C-25.61426455 29.82623812 -30.0663302 33.20957928 -34.5 36.625 C-41.36832833 41.91294756 -48.31863309 47.08066966 -55.31835938 52.19335938 C-60.62246285 56.07564921 -65.82521787 60.07237198 -71 64.125 C-78.09466431 69.62841247 -85.23502624 75.06548626 -92.4296875 80.4375 C-95.32346192 82.60740299 -98.19802451 84.80174507 -101.0703125 87 C-101.98361328 87.69851074 -102.89691406 88.39702148 -103.83789062 89.11669922 C-105.64779604 90.50203151 -107.45646326 91.88898352 -109.26367188 93.27783203 C-111.83124568 95.24226822 -114.41218588 97.18732155 -117 99.125 C-117.89041992 99.80143555 -118.78083984 100.47787109 -119.69824219 101.17480469 C-120.56868164 101.81579102 -121.43912109 102.45677734 -122.3359375 103.1171875 C-123.50068604 103.98512939 -123.50068604 103.98512939 -124.68896484 104.87060547 C-127.38818211 106.33569931 -128.97233095 106.53109664 -132 106.125 C-132.66 105.465 -133.32 104.805 -134 104.125 C-133.89847204 100.72381342 -133.26948193 99.40193992 -130.8828125 96.94921875 C-129.97273438 96.24410156 -129.06265625 95.53898438 -128.125 94.8125 C-126.62453125 93.64074219 -126.62453125 93.64074219 -125.09375 92.4453125 C-121.38210074 89.66157555 -117.64490874 86.91911067 -113.875 84.21484375 C-108.49399235 80.30337759 -103.25881279 76.19835425 -98 72.125 C-90.54232601 66.35847141 -83.04936535 60.64713547 -75.49804688 55.00390625 C-69.86623921 50.78933954 -64.27530156 46.52266378 -58.6875 42.25 C-51.05673779 36.41847363 -43.36328685 30.68150142 -35.61767578 25.00366211 C-30.02314631 20.8967877 -24.50396963 16.70550085 -19.01953125 12.453125 C-14.8028057 9.20193686 -10.53590412 6.0201956 -6.265625 2.83984375 C-2.66010446 0.11083769 -2.66010446 0.11083769 0 0 Z " fill="#0D0D0D" transform="translate(429,512.875)"/>
<path d="M0 0 C0.79212891 0.10078857 1.58425781 0.20157715 2.40039062 0.30541992 C3.30144531 0.4157959 4.2025 0.52617187 5.13085938 0.63989258 C6.57912109 0.83591064 6.57912109 0.83591064 8.05664062 1.03588867 C9.48943359 1.21837158 9.48943359 1.21837158 10.95117188 1.40454102 C14.15628816 1.82284818 17.35649928 2.26859417 20.55664062 2.72338867 C21.75426025 2.89346436 22.95187988 3.06354004 24.18579102 3.23876953 C34.73561658 4.7744566 45.22083125 6.61011725 55.71228027 8.49740601 C64.67219993 10.10790658 73.62543308 11.63238266 82.64819336 12.85253906 C93.47981698 14.33185064 104.26695341 16.10796232 115.06079102 17.83789062 C122.05528802 18.95534387 129.04478706 20.06300959 136.06835938 20.98510742 C137.05126953 21.1146582 138.03417969 21.24420898 139.046875 21.37768555 C140.78241849 21.60012667 142.51937525 21.81193528 144.2578125 22.01049805 C149.56833105 22.68873109 149.56833105 22.68873109 152.05664062 24.45776367 C153.50544922 26.74416473 153.39570702 28.39117081 153.05664062 31.03588867 C151.05664062 33.03588867 151.05664062 33.03588867 148.58007812 33.10473633 C140.40419698 32.37818858 132.34950869 31.21108356 124.26779175 29.79714966 C120.32613744 29.10859099 116.38077752 28.44188082 112.43554688 27.77416992 C111.5988295 27.6322673 110.76211212 27.49036469 109.90003967 27.34416199 C99.94656674 25.66520401 89.97050473 24.13419137 79.99414062 22.59838867 C64.58825341 20.22143675 49.19233318 17.79037091 33.80664062 15.28588867 C32.92724823 15.14313507 32.04785583 15.00038147 31.14181519 14.853302 C25.44447666 13.92766159 19.74930544 12.98985821 14.05664062 12.03588867 C13.23639404 11.89868408 12.41614746 11.76147949 11.57104492 11.62011719 C9.17473078 11.21684711 6.7795905 10.80727587 4.38476562 10.39526367 C3.65819763 10.27306458 2.93162964 10.15086548 2.18304443 10.02496338 C-2.82786323 9.15138482 -2.82786323 9.15138482 -3.94335938 8.03588867 C-4.13085938 5.09838867 -4.13085938 5.09838867 -3.94335938 2.03588867 C-1.94335938 0.03588867 -1.94335938 0.03588867 0 0 Z " fill="#0C0C0C" transform="translate(593.943359375,497.964111328125)"/>
<path d="M0 0 C1 1 1 1 1.35058594 3.32958984 C1 6 1 6 -0.90527344 7.90869141 C-1.79762695 8.50858887 -2.68998047 9.10848633 -3.609375 9.7265625 C-4.61677734 10.41395508 -5.62417969 11.10134766 -6.66210938 11.80957031 C-8.31436523 12.89383301 -8.31436523 12.89383301 -10 14 C-11.12869237 14.7529258 -12.25694223 15.50651535 -13.38476562 16.26074219 C-16.98940569 18.6586401 -20.61834558 21.01829827 -24.25 23.375 C-26.69349847 24.96493425 -29.13597088 26.55643923 -31.578125 28.1484375 C-32.18859177 28.54619888 -32.79905853 28.94396027 -33.42802429 29.35377502 C-40.3200257 33.85058367 -47.16018419 38.42438265 -54 43 C-59.39485728 46.60562751 -64.79070268 50.20977697 -70.1875 53.8125 C-70.89946533 54.28779144 -71.61143066 54.76308289 -72.3449707 55.2527771 C-82.01320392 61.70435524 -91.70426568 68.1152464 -101.47729492 74.4074707 C-104.91242485 76.47949679 -104.91242485 76.47949679 -108 79 C-110.9375 79.1875 -110.9375 79.1875 -114 79 C-116 77 -116 77 -116.05859375 74.1640625 C-114.60160429 69.80922317 -111.88525469 68.49760531 -108.0625 66.375 C-106.57911087 65.50013397 -105.09739623 64.62242383 -103.6171875 63.7421875 C-102.84858398 63.29069336 -102.07998047 62.83919922 -101.28808594 62.37402344 C-97.67300792 60.20312512 -94.1824483 57.85784363 -90.6875 55.5 C-89.18497472 54.4920699 -87.68236636 53.48426363 -86.1796875 52.4765625 C-84.96297363 51.65913574 -84.96297363 51.65913574 -83.72167969 50.82519531 C-78.85363393 47.5606178 -73.97414167 44.31318145 -69.09622192 41.06338501 C-59.41568161 34.61606455 -59.41568161 34.61606455 -49.74609375 28.15234375 C-41.31073396 22.504787 -32.81455419 16.9539537 -24.29199219 11.4387207 C-23.36418945 10.83632568 -22.43638672 10.23393066 -21.48046875 9.61328125 C-20.11220947 8.72890381 -20.11220947 8.72890381 -18.71630859 7.82666016 C-16.8712398 6.58589036 -15.06164334 5.29103818 -13.28759766 3.95068359 C-12.42569824 3.3005127 -11.56379883 2.6503418 -10.67578125 1.98046875 C-9.91821533 1.38516357 -9.16064941 0.7898584 -8.38012695 0.17651367 C-5.21537884 -1.38784382 -3.34749083 -0.90479901 0 0 Z " fill="#0D0D0D" transform="translate(700,408)"/>
<path d="M0 0 C1.98 0.495 1.98 0.495 4 1 C4.20363159 2.08716309 4.20363159 2.08716309 4.41137695 3.19628906 C5.04139905 6.54823056 5.67692311 9.89910751 6.3125 13.25 C6.52583984 14.38953125 6.73917969 15.5290625 6.95898438 16.703125 C8.90002339 29.93802653 8.90002339 29.93802653 14 42 C17.21395302 42.31303065 17.21395302 42.31303065 21.015625 42.09765625 C26.96781715 41.96260942 32.80277848 42.09931688 38.734375 42.62109375 C39.46642151 42.68516418 40.19846802 42.74923462 40.95269775 42.81524658 C42.45299822 42.94968416 43.95310158 43.08633898 45.45300293 43.22515869 C49.3839979 43.58855167 53.31693139 43.92942744 57.25 44.26953125 C58.01407166 44.33589783 58.77814331 44.4022644 59.56536865 44.47064209 C66.37470436 45.05231254 73.18499626 45.45619919 80.01464844 45.70874023 C83.90265424 45.85782577 87.69920034 46.21100496 91.55371094 46.72802734 C98.11575873 47.45758036 104.7306791 47.72713534 111.3203125 48.125 C113.32311121 48.24684327 115.3256239 48.37335961 117.328125 48.5 C118.5130957 48.5721875 119.69806641 48.644375 120.91894531 48.71875 C123.41200236 48.94632541 125.60942804 49.29211935 128 50 C127.67 51.32 127.34 52.64 127 54 C121.39137675 54.09278972 116.01311731 54.04420843 110.453125 53.2265625 C106.82404096 52.89139232 103.20526033 52.88459147 99.5625 52.875 C98.83909424 52.87048828 98.11568848 52.86597656 97.37036133 52.86132812 C93.89500639 52.55714212 93.89500639 52.55714212 91 54 C88.81812555 54.08490867 86.63342407 54.09847366 84.44995117 54.08325195 C83.44242562 54.07724582 83.44242562 54.07724582 82.41454601 54.07111835 C70.28552989 53.98019468 58.15989111 53.63563556 46.03540039 53.31030273 C42.86724117 53.22611963 39.69903697 53.1500974 36.53051758 53.08081055 C32.66787929 52.99626368 28.80583961 52.89768414 24.9438076 52.78899574 C23.48191696 52.75020225 22.01988656 52.71633926 20.55776405 52.68758202 C18.52427678 52.6465981 16.49121729 52.58583117 14.45825195 52.52416992 C13.30436478 52.49530197 12.1504776 52.46643402 10.96162415 52.43669128 C7.73234378 51.96053411 6.31363663 51.26467146 4 49 C3.35546875 46.84375 3.35546875 46.84375 3.1875 44.5 C3.11917969 43.7265625 3.05085937 42.953125 2.98046875 42.15625 C3 40 3 40 4 37 C4.52691312 28.89293323 2.50726934 21.43513255 0.68945312 13.58007812 C0.34624023 12.03416992 0.34624023 12.03416992 -0.00390625 10.45703125 C-0.21861572 9.52866455 -0.4333252 8.60029785 -0.65454102 7.64379883 C-1.02342088 4.82075992 -0.71350762 2.73970816 0 0 Z " fill="#EDEDED" transform="translate(684,265)"/>
<path d="M0 0 C0.66 0.99 1.32 1.98 2 3 C2.804375 3.7425 2.804375 3.7425 3.625 4.5 C5 6 5 6 5 9 C5.66 9 6.32 9 7 9 C7.103125 9.94875 7.20625 10.8975 7.3125 11.875 C7.68539295 15.29107501 7.68539295 15.29107501 11 17 C14.21581937 17.35390562 14.21581937 17.35390562 17.8984375 17.37890625 C18.57041168 17.39590073 19.24238586 17.4128952 19.9347229 17.43040466 C22.08138644 17.48346808 24.22803393 17.52376608 26.375 17.5625 C28.5147224 17.60659563 30.65430405 17.65349296 32.79385376 17.70530701 C34.74052893 17.75163564 36.68740568 17.78925051 38.63427734 17.82641602 C41.54286626 17.97642376 44.17245617 18.33230139 47 19 C46.04270084 20.12588014 45.08412105 21.2506715 44.125 22.375 C43.59132813 23.00148438 43.05765625 23.62796875 42.5078125 24.2734375 C39.27872404 27.97099475 39.27872404 27.97099475 36.51318359 28.25878906 C34.97138428 28.26217285 34.97138428 28.26217285 33.3984375 28.265625 C32.26792969 28.26820313 31.13742187 28.27078125 29.97265625 28.2734375 C28.78542969 28.26570313 27.59820313 28.25796875 26.375 28.25 C25.21097656 28.25773437 24.04695312 28.26546875 22.84765625 28.2734375 C15.28959497 28.25631845 9.16390863 27.38796954 2 25 C2 24.34 2 23.68 2 23 C1.34 23 0.68 23 0 23 C0 22.34 0 21.68 0 21 C-0.66 21 -1.32 21 -2 21 C-2 20.01 -2 19.02 -2 18 C-2.66 18 -3.32 18 -4 18 C-4.10864945 15.93867858 -4.18588321 13.87568679 -4.25 11.8125 C-4.29640625 10.66394531 -4.3428125 9.51539063 -4.390625 8.33203125 C-3.92924572 4.39646601 -2.70028512 2.82254213 0 0 Z " fill="#060606" transform="translate(681,299)"/>
<path d="M0 0 C9.4908852 -0.21544174 18.78839224 0.36583201 28.22668457 1.22515869 C32.19818356 1.58619462 36.17122296 1.92905968 40.14453125 2.26953125 C40.91787811 2.33589783 41.69122498 2.4022644 42.48800659 2.47064209 C49.32309772 3.04706796 56.15902192 3.45518382 63.01391602 3.70874023 C66.90217224 3.85778326 70.6989544 4.21097197 74.55371094 4.72802734 C81.11575873 5.45758036 87.7306791 5.72713534 94.3203125 6.125 C96.32311121 6.24684327 98.3256239 6.37335961 100.328125 6.5 C101.5130957 6.5721875 102.69806641 6.644375 103.91894531 6.71875 C106.41200236 6.94632541 108.60942804 7.29211935 111 8 C110.67 9.32 110.34 10.64 110 12 C102.21621884 12.17932684 94.60828215 11.69304795 86.8631897 10.94595337 C67.87732455 9.13176166 48.8463334 7.98139092 29.8125 6.8125 C29.07642643 6.76723679 28.34035286 6.72197357 27.58197403 6.67533875 C18.38838043 6.11027615 9.19440369 5.55173967 0 5 C0 3.35 0 1.7 0 0 Z " fill="#111111" transform="translate(701,307)"/>
<path d="M0 0 C3.1875 -0.375 3.1875 -0.375 7 0 C9.5 2.6875 9.5 2.6875 10.68359375 4.328125 C12.89586267 7.13777217 15.72925674 9.5292631 19 11 C21.0782847 10.7239477 21.0782847 10.7239477 23 10 C24.33333333 9.66666667 25.66666667 9.33333333 27 9 C29.29013653 12.4352048 29.17842973 13.985331 29 18 C29.81726563 18.25523437 30.63453125 18.51046875 31.4765625 18.7734375 C35.5452704 20.18981697 39.44119073 21.87505953 43.375 23.625 C44.11105469 23.94984375 44.84710938 24.2746875 45.60546875 24.609375 C47.40470969 25.40384503 49.20250496 26.20158771 51 27 C51 27.66 51 28.32 51 29 C43.41045469 28.55355616 36.98360263 25.88499438 30 23 C30 24.65 30 26.3 30 28 C29.67 28 29.34 28 29 28 C28.67 26.02 28.34 24.04 28 22 C26.35 22 24.7 22 23 22 C23 21.01 23 20.02 23 19 C22.67 20.65 22.34 22.3 22 24 C21.67 24 21.34 24 21 24 C21.04125 23.13375 21.0825 22.2675 21.125 21.375 C19.55017632 16.65052896 16.80407063 15.75882134 12.57421875 13.4296875 C6.50556449 10.05923612 3.13418086 6.1478163 0 0 Z " fill="#242424" transform="translate(213,200)"/>
<path d="M0 0 C1.09896142 1.09896142 2.196435 2.19942846 3.2890625 3.3046875 C4.61829107 4.621777 5.97235706 5.91382051 7.3359375 7.1953125 C8.15320313 7.97648437 8.97046875 8.75765625 9.8125 9.5625 C10.60269531 10.30628906 11.39289062 11.05007813 12.20703125 11.81640625 C14 14 14 14 14 18 C12.71403931 17.91020874 12.71403931 17.91020874 11.40209961 17.81860352 C0.79374212 17.09302361 -9.81944415 16.5010426 -20.4375 15.9375 C-22.1516975 15.84579263 -23.86589024 15.75399624 -25.58007812 15.66210938 C-29.71999814 15.44038406 -33.85997996 15.21984956 -38 15 C-37.360625 14.690625 -36.72125 14.38125 -36.0625 14.0625 C-34.06389179 13.1654837 -34.06389179 13.1654837 -33 12 C-30.46784638 11.89859455 -27.96949764 11.8592085 -25.4375 11.875 C-24.70313721 11.87693359 -23.96877441 11.87886719 -23.2121582 11.88085938 C-19.6687216 11.90921632 -16.19949376 11.98353033 -12.6875 12.5 C-7.7797222 13.1654614 -2.94431318 13.0817993 2 13 C2.33 12.01 2.66 11.02 3 10 C1.68 9.67 0.36 9.34 -1 9 C-0.67 8.67 -0.34 8.34 0 8 C-0.2475 7.1028125 -0.2475 7.1028125 -0.5 6.1875 C-1.05940195 3.74011646 -0.75858193 2.36003266 0 0 Z " fill="#E8E8E8" transform="translate(809,305)"/>
<path d="M0 0 C2.0625 1.75 2.0625 1.75 4 4 C3.75 6.25 3.75 6.25 3 8 C2.34 8 1.68 8 1 8 C1.07089844 8.72574219 1.14179687 9.45148437 1.21484375 10.19921875 C0.8696043 14.69988577 -1.64419219 16.95980016 -4.62890625 20.16796875 C-7.87534671 22.67633873 -10.12732842 22.7894151 -14.1171875 22.4140625 C-16 22 -16 22 -18 21 C-18 18.69 -18 16.38 -18 14 C-17.33613281 13.8040625 -16.67226563 13.608125 -15.98828125 13.40625 C-10.96993283 11.70660499 -7.76884855 10.46105117 -5.0625 5.75 C-4.72347656 5.04359375 -4.38445313 4.3371875 -4.03515625 3.609375 C-3.69355469 3.07828125 -3.35195313 2.5471875 -3 2 C-2.01 2 -1.02 2 0 2 C0 1.34 0 0.68 0 0 Z " fill="#090909" transform="translate(823,721)"/>
<path d="M0 0 C1.98 0.495 1.98 0.495 4 1 C4.20363159 2.08716309 4.20363159 2.08716309 4.41137695 3.19628906 C5.04139905 6.54823056 5.67692311 9.89910751 6.3125 13.25 C6.52583984 14.38953125 6.73917969 15.5290625 6.95898438 16.703125 C8.21553664 23.30471304 9.64834381 29.79368821 11.43823242 36.27246094 C12.05062213 39.24578461 12.09492424 41.9724457 12 45 C10.35 44.67 8.7 44.34 7 44 C6.86424561 43.31599121 6.72849121 42.63198242 6.58862305 41.92724609 C5.95599362 38.74294883 5.3216798 35.55898884 4.6875 32.375 C4.4611084 31.23321289 4.2347168 30.09142578 4.00146484 28.91503906 C2.58419487 21.80141456 1.08313092 14.72372191 -0.6171875 7.671875 C-1.02535559 4.8230283 -0.73663274 2.76489549 0 0 Z " fill="#181818" transform="translate(684,265)"/>
<path d="M0 0 C4.70940171 1.48717949 4.70940171 1.48717949 6.0625 3.875 C6.371875 4.57625 6.68125 5.2775 7 6 C8.29233607 7.37310707 9.62437146 8.71034824 11 10 C11.66 10.66 12.32 11.32 13 12 C6.19576697 11.62198705 0.75768689 9.702899 -5 6 C-5.66 5.01 -6.32 4.02 -7 3 C-5.68 3 -4.36 3 -3 3 C-1.2488427 1.5833253 -1.2488427 1.5833253 0 0 Z " fill="#272727" transform="translate(246,755)"/>
<path d="M0 0 C-0.33 1.32 -0.66 2.64 -1 4 C-1.66 4 -2.32 4 -3 4 C-3 4.99 -3 5.98 -3 7 C-2.34 7.33 -1.68 7.66 -1 8 C-4.09714056 9.06343033 -7.20347406 10.09688889 -10.3125 11.125 C-11.19357422 11.42792969 -12.07464844 11.73085938 -12.98242188 12.04296875 C-13.82998047 12.32011719 -14.67753906 12.59726562 -15.55078125 12.8828125 C-16.33106689 13.14465332 -17.11135254 13.40649414 -17.9152832 13.67626953 C-20 14 -20 14 -23 12 C-22.16984375 11.77570313 -21.3396875 11.55140625 -20.484375 11.3203125 C-16.25910288 9.71925647 -12.93059164 7.45647586 -9.25 4.875 C-2.25309917 0 -2.25309917 0 0 0 Z " fill="#E1E1E1" transform="translate(610,475)"/>
<path d="M0 0 C0 0.99 0 1.98 0 3 C-12.38297105 3.11739981 -24.6508245 2.97815251 -37 2 C-37 1.67 -37 1.34 -37 1 C-36.38479492 0.97494385 -35.76958984 0.9498877 -35.13574219 0.92407227 C-32.34029844 0.80781513 -29.54516702 0.68522358 -26.75 0.5625 C-25.78191406 0.52318359 -24.81382812 0.48386719 -23.81640625 0.44335938 C-22.88183594 0.40146484 -21.94726562 0.35957031 -20.984375 0.31640625 C-20.12553711 0.27974854 -19.26669922 0.24309082 -18.38183594 0.20532227 C-4.19701137 -1.0174573 -4.19701137 -1.0174573 0 0 Z " fill="#393939" transform="translate(616,124)"/>
<path d="M0 0 C0.66 0.33 1.32 0.66 2 1 C1.01 2.32 0.02 3.64 -1 5 C-0.29875 4.46375 0.4025 3.9275 1.125 3.375 C4 2 4 2 7.3125 2.8125 C8.6428125 3.4003125 8.6428125 3.4003125 10 4 C7.19139738 7.31925764 5.58628121 8.85094546 1.3125 9.9375 C0.219375 9.958125 -0.87375 9.97875 -2 10 C-2.66 9.34 -3.32 8.68 -4 8 C-3.77256695 5.04337034 -3.38764062 3.44966312 -1.4375 1.1875 C-0.963125 0.795625 -0.48875 0.40375 0 0 Z " fill="#181818" transform="translate(299,609)"/>
<path d="M0 0 C1.010625 0.45890625 2.02125 0.9178125 3.0625 1.390625 C4.031875 1.83921875 5.00125 2.2878125 6 2.75 C7.66226973 3.42755559 9.32746243 4.09820227 11 4.75 C11 5.41 11 6.07 11 6.75 C3.41045469 6.30355616 -3.01639737 3.63499438 -10 0.75 C-10 2.4 -10 4.05 -10 5.75 C-10.33 5.75 -10.66 5.75 -11 5.75 C-11 3.77 -11 1.79 -11 -0.25 C-6.54123783 -2.64330617 -4.50631362 -2.09221704 0 0 Z " fill="#212121" transform="translate(253,222.25)"/>
<path d="M0 0 C1.4836107 0.09000378 2.96348907 0.24646818 4.4375 0.4375 C7.709892 0.85914317 7.709892 0.85914317 11 1 C11 1.66 11 2.32 11 3 C11.66 3.33 12.32 3.66 13 4 C7.99067246 7.00559652 4.67276511 7.29341888 -1 7 C-1.04254356 5.00045254 -1.04080783 2.99958364 -1 1 C-0.67 0.67 -0.34 0.34 0 0 Z " fill="#171717" transform="translate(282,540)"/>
<path d="M0 0 C0.33 0 0.66 0 1 0 C1.02886984 3.97915159 1.04675406 7.95827653 1.0625 11.9375 C1.07087891 13.07380859 1.07925781 14.21011719 1.08789062 15.38085938 C1.09111328 16.46044922 1.09433594 17.54003906 1.09765625 18.65234375 C1.10289307 19.65257568 1.10812988 20.65280762 1.11352539 21.68334961 C1 24 1 24 0 25 C-0.23678716 27.69235776 -0.42198025 30.36498156 -0.5625 33.0625 C-0.60568359 33.82111328 -0.64886719 34.57972656 -0.69335938 35.36132812 C-0.79973633 37.24065438 -0.90039934 39.12030244 -1 41 C-1.33 41 -1.66 41 -2 41 C-2.09923785 31.15339993 -2.06573254 21.33642951 -1.5625 11.5 C-1.52326416 10.69393311 -1.48402832 9.88786621 -1.44360352 9.05737305 C-1.26370544 5.83819884 -1.02452337 3.07357011 0 0 Z " fill="#505050" transform="translate(228,314)"/>
<path d="M0 0 C-5.95219124 6.28286853 -5.95219124 6.28286853 -9 7 C-12.75 5.625 -12.75 5.625 -16 4 C-16 3.34 -16 2.68 -16 2 C-10.61972975 0.80911014 -5.54708616 -0.2919519 0 0 Z " fill="#D5D5D5" transform="translate(502,462)"/>
<path d="M0 0 C1.48831242 0.00667405 2.97660807 0.01863442 4.46484375 0.03515625 C5.22345703 0.03966797 5.98207031 0.04417969 6.76367188 0.04882812 C8.64326246 0.06064945 10.52281274 0.07858547 12.40234375 0.09765625 C12.40234375 0.42765625 12.40234375 0.75765625 12.40234375 1.09765625 C10.09234375 1.42765625 7.78234375 1.75765625 5.40234375 2.09765625 C11.67234375 2.42765625 17.94234375 2.75765625 24.40234375 3.09765625 C24.40234375 3.42765625 24.40234375 3.75765625 24.40234375 4.09765625 C13.34673083 4.19685916 2.41327788 4.2228612 -8.59765625 3.09765625 C-7.95828125 2.78828125 -7.31890625 2.47890625 -6.66015625 2.16015625 C-2.60412874 0.07068753 -2.60412874 0.07068753 0 0 Z " fill="#C3C3C3" transform="translate(779.59765625,316.90234375)"/>
<path d="M0 0 C0.66 0 1.32 0 2 0 C2 0.99 2 1.98 2 3 C2.66 3 3.32 3 4 3 C4 3.66 4 4.32 4 5 C4.66 5 5.32 5 6 5 C6 5.66 6 6.32 6 7 C6.66 7 7.32 7 8 7 C8 7.66 8 8.32 8 9 C8.66 9 9.32 9 10 9 C10 9.66 10 10.32 10 11 C12.31 11.33 14.62 11.66 17 12 C13.18243176 13.37432457 9.92744671 12.67975039 6 12 C5.67 11.01 5.34 10.02 5 9 C4.01 8.67 3.02 8.34 2 8 C1.26953125 6.15234375 1.26953125 6.15234375 0.8125 3.9375 C0.65394531 3.20402344 0.49539063 2.47054688 0.33203125 1.71484375 C0.22246094 1.14894531 0.11289062 0.58304687 0 0 Z " fill="#323232" transform="translate(677,317)"/>
<path d="M0 0 C2 1 2 1 3.125 4.1875 C3.91680237 7.63749602 4.1714979 10.484293 4 14 C3.01 14.33 2.02 14.66 1 15 C0.664061 13.5422647 0.33133376 12.08378894 0 10.625 C-0.185625 9.81289062 -0.37125 9.00078125 -0.5625 8.1640625 C-1 6 -1 6 -1 4 C-1.66 4 -2.32 4 -3 4 C-2.67 3.01 -2.34 2.02 -2 1 C-1.34 0.67 -0.68 0.34 0 0 Z " fill="#2A2A2A" transform="translate(667,226)"/>
<path d="M0 0 C5.61 0 11.22 0 17 0 C15.02 0.99 15.02 0.99 13 2 C12.13375 2.556875 12.13375 2.556875 11.25 3.125 C7.81301605 4.46160487 4.67145533 4.12238184 1 4 C0.67 2.68 0.34 1.36 0 0 Z " fill="#242424" transform="translate(695,317)"/>
<path d="M0 0 C0.86625 0.495 0.86625 0.495 1.75 1 C4.19883862 2.27075898 4.19883862 2.27075898 8 2 C7.67 3.32 7.34 4.64 7 6 C6.01 5.34 5.02 4.68 4 4 C4.33 5.32 4.66 6.64 5 8 C0.00724943 6.72278474 -2.57611908 4.82669043 -6 1 C-3.03 1.495 -3.03 1.495 0 2 C0 1.34 0 0.68 0 0 Z " fill="#313131" transform="translate(228,209)"/>
<path d="M0 0 C0.33 1.65 0.66 3.3 1 5 C-0.43791516 4.85831863 -1.8753237 4.71148957 -3.3125 4.5625 C-4.11300781 4.48128906 -4.91351563 4.40007812 -5.73828125 4.31640625 C-8 4 -8 4 -11 3 C-7.46647659 -0.87004945 -5.02196482 -1.22155901 0 0 Z " fill="#202020" transform="translate(229,165)"/>
<path d="M0 0 C2.475 0.495 2.475 0.495 5 1 C5 2.98 5 4.96 5 7 C6.65 7.33 8.3 7.66 10 8 C10.33 9.32 10.66 10.64 11 12 C9.68 11.34 8.36 10.68 7 10 C7.33 9.34 7.66 8.68 8 8 C7.34 8 6.68 8 6 8 C5.67 8.99 5.34 9.98 5 11 C4.71125 10.360625 4.4225 9.72125 4.125 9.0625 C3.17176549 6.84793921 3.17176549 6.84793921 1 6 C1.66 6 2.32 6 3 6 C3 4.68 3 3.36 3 2 C2.01 2 1.02 2 0 2 C0 1.34 0 0.68 0 0 Z " fill="#474747" transform="translate(832,317)"/>
<path d="M0 0 C0.66 0.33 1.32 0.66 2 1 C1.375 3.375 1.375 3.375 0 6 C-3.125 7.3125 -3.125 7.3125 -6 8 C-6.99 7.01 -7.98 6.02 -9 5 C-7.54735962 4.1361871 -6.0876837 3.28419546 -4.625 2.4375 C-3.40683594 1.72400391 -3.40683594 1.72400391 -2.1640625 0.99609375 C-1.44992187 0.66738281 -0.73578125 0.33867187 0 0 Z " fill="#1F1F1F" transform="translate(360,497)"/>
<path d="M0 0 C0.66 0.33 1.32 0.66 2 1 C-1.98919507 5.14262565 -6.20811834 8.80541222 -11 12 C-11.99 11.67 -12.98 11.34 -14 11 C-9.38 7.37 -4.76 3.74 0 0 Z " fill="#D4D4D4" transform="translate(376,562)"/>
<path d="M0 0 C2.49505962 2.49505962 2.35948376 3.67328888 2.625 7.125 C2.69976563 8.03507812 2.77453125 8.94515625 2.8515625 9.8828125 C2.90054688 10.58148438 2.94953125 11.28015625 3 12 C2.67 11.01 2.34 10.02 2 9 C1.01 8.67 0.02 8.34 -1 8 C-1.625 5.125 -1.625 5.125 -2 2 C-1.34 1.34 -0.68 0.68 0 0 Z " fill="#343434" transform="translate(684,296)"/>
<path d="M0 0 C1.5 1.3125 1.5 1.3125 3 3 C3 3.99 3 4.98 3 6 C2.01 6.66 1.02 7.32 0 8 C-1.32 7.34 -2.64 6.68 -4 6 C-3.6875 4.125 -3.6875 4.125 -3 2 C-2.01 1.34 -1.02 0.68 0 0 Z " fill="#070707" transform="translate(693,168)"/>
<path d="M0 0 C0.66 0.33 1.32 0.66 2 1 C1.21625 1.61875 0.4325 2.2375 -0.375 2.875 C-2.96837647 4.89858661 -2.96837647 4.89858661 -5 7 C-6.19544543 7.89252713 -7.40493411 8.76643511 -8.625 9.625 C-9.25664062 10.07101562 -9.88828125 10.51703125 -10.5390625 10.9765625 C-11.02117187 11.31429687 -11.50328125 11.65203125 -12 12 C-12 11.01 -12 10.02 -12 9 C-10.03123367 7.30369687 -8.11326838 5.80463882 -6 4.3125 C-5.42765625 3.89677734 -4.8553125 3.48105469 -4.265625 3.05273438 C-2.85003468 2.02643139 -1.42580369 1.01206601 0 0 Z " fill="#DCDCDC" transform="translate(411,536)"/>
<path d="M0 0 C2.4375 0.75 2.4375 0.75 5 2 C5.8125 4.125 5.8125 4.125 6 6 C3.69 5.67 1.38 5.34 -1 5 C-1.33 4.01 -1.66 3.02 -2 2 C-1.34 2 -0.68 2 0 2 C0 1.34 0 0.68 0 0 Z " fill="#1B1B1B" transform="translate(222,205)"/>
<path d="M0 0 C0.66 0.66 1.32 1.32 2 2 C-3 7 -3 7 -6 8 C-6.33 8.66 -6.66 9.32 -7 10 C-7.99 9.34 -8.98 8.68 -10 8 C-9.36191406 7.50628906 -8.72382812 7.01257813 -8.06640625 6.50390625 C-7.24011719 5.86324219 -6.41382813 5.22257813 -5.5625 4.5625 C-4.73878906 3.92441406 -3.91507813 3.28632812 -3.06640625 2.62890625 C-1.12498733 1.16417803 -1.12498733 1.16417803 0 0 Z " fill="#E6E6E6" transform="translate(629,568)"/>
<path d="M0 0 C0.33 0 0.66 0 1 0 C2.0006709 5.96345767 2.0662997 10.28728907 0 16 C-0.33 16 -0.66 16 -1 16 C-2.0006709 10.03654233 -2.0662997 5.71271093 0 0 Z " fill="#DCDCDC" transform="translate(689,298)"/>
<path d="M0 0 C4.95 1.98 4.95 1.98 10 4 C10 4.66 10 5.32 10 6 C8.741875 5.87625 7.48375 5.7525 6.1875 5.625 C5.12595703 5.52058594 5.12595703 5.52058594 4.04296875 5.4140625 C2 5 2 5 -1 3 C-0.67 2.01 -0.34 1.02 0 0 Z " fill="#3D3D3D" transform="translate(254,223)"/>
<path d="M0 0 C2.3431213 0.25561323 4.67843403 0.59270772 7 1 C7.33 1.66 7.66 2.32 8 3 C6.02 3.99 4.04 4.98 2 6 C1.34 5.34 0.68 4.68 0 4 C0 2.68 0 1.36 0 0 Z " fill="#F0F0F0" transform="translate(632,441)"/>
<path d="M0 0 C2.4375 0.375 2.4375 0.375 5 1 C6 3 6 3 5.875 5.4375 C5 8 5 8 2.5625 9.875 C1.2940625 10.431875 1.2940625 10.431875 0 11 C-0.66 10.67 -1.32 10.34 -2 10 C-1.34 9.608125 -0.68 9.21625 0 8.8125 C2.25469591 7.15526007 2.25469591 7.15526007 2.375 4.4375 C2.21896136 1.82471891 2.21896136 1.82471891 0 0 Z " fill="#E2E2E2" transform="translate(698,407)"/>
<path d="M0 0 C0.66 0.33 1.32 0.66 2 1 C1.34 1.66 0.68 2.32 0 3 C0 3.99 0 4.98 0 6 C-3.01031744 6.93423645 -3.86650268 7.04449911 -7 6 C-4.69 4.02 -2.38 2.04 0 0 Z " fill="#DEDEDE" transform="translate(356,577)"/>
<path d="M0 0 C0 0.66 0 1.32 0 2 C-2.31 2 -4.62 2 -7 2 C-7.66 3.98 -8.32 5.96 -9 8 C-9.33 8 -9.66 8 -10 8 C-10 5.36 -10 2.72 -10 0 C-3.375 -1.125 -3.375 -1.125 0 0 Z " fill="#D1D1D1" transform="translate(599,497)"/>
<path d="M0 0 C2.97 0 5.94 0 9 0 C8.67 0.99 8.34 1.98 8 3 C4.37673261 4.2077558 3.35853631 3.54311128 0 2 C0 1.34 0 0.68 0 0 Z " fill="#E5E5E5" transform="translate(486,464)"/>
<path d="M0 0 C0.99 0.33 1.98 0.66 3 1 C2.34 1 1.68 1 1 1 C0.34 2.65 -0.32 4.3 -1 6 C-2.32 6 -3.64 6 -5 6 C-3.63016497 2.83884224 -3.0109362 2.0072908 0 0 Z " fill="#151515" transform="translate(322,592)"/>
<path d="M0 0 C3.32901247 2.21934164 3.75023244 3.34683329 5 7 C4.01 7 3.02 7 2 7 C-0.1875 4.5 -0.1875 4.5 -2 2 C-1.34 2 -0.68 2 0 2 C0 1.34 0 0.68 0 0 Z " fill="#EEEEEE" transform="translate(818,297)"/>
<path d="M0 0 C-0.33 0.99 -0.66 1.98 -1 3 C-1.99 3 -2.98 3 -4 3 C-4.33 3.66 -4.66 4.32 -5 5 C-7.31 4.67 -9.62 4.34 -12 4 C-8.30376141 2.00971768 -4.25699221 0 0 0 Z " fill="#393939" transform="translate(282,137)"/>
<path d="M0 0 C0.33 0.66 0.66 1.32 1 2 C0.34 2.66 -0.32 3.32 -1 4 C-1.33 4.66 -1.66 5.32 -2 6 C-4.5625 6.625 -4.5625 6.625 -7 7 C-7.33 6.34 -7.66 5.68 -8 5 C-4.04 2.525 -4.04 2.525 0 0 Z " fill="#E0E0E0" transform="translate(628,462)"/>
<path d="M0 0 C3.79588866 0.54226981 5.47211993 2.20127563 8 5 C7.67 5.99 7.34 6.98 7 8 C1.125 3.375 1.125 3.375 0 0 Z " fill="#ECECEC" transform="translate(822,305)"/>
<path d="M0 0 C0.33 0.66 0.66 1.32 1 2 C-1.64738916 3.4606285 -2.89448334 4 -6 4 C-6.99 3.67 -7.98 3.34 -9 3 C-9 2.34 -9 1.68 -9 1 C-6.04335481 -0.4783226 -3.25770263 -0.06032783 0 0 Z " fill="#131313" transform="translate(227,168)"/>
<path d="M0 0 C0.66 0.33 1.32 0.66 2 1 C1.34 2.65 0.68 4.3 0 6 C-1.65 6 -3.3 6 -5 6 C-5 5.01 -5 4.02 -5 3 C-2.625 1.25 -2.625 1.25 0 0 Z " fill="#E2E2E2" transform="translate(640,454)"/>
<path d="M0 0 C2.97 0 5.94 0 9 0 C9.33 1.65 9.66 3.3 10 5 C10.99 5.33 11.98 5.66 13 6 C11.0625 6.5625 11.0625 6.5625 9 7 C8 6 8 6 7.9375 3.4375 C7.958125 2.633125 7.97875 1.82875 8 1 C5.36 1 2.72 1 0 1 C0 0.67 0 0.34 0 0 Z " fill="#5E5E5E" transform="translate(632,110)"/>
<path d="M0 0 C1 2 1 2 0.375 4.5625 C-1 7 -1 7 -3.625 7.8125 C-4.40875 7.874375 -5.1925 7.93625 -6 8 C-4.02 5.36 -2.04 2.72 0 0 Z " fill="#E8E8E8" transform="translate(636,560)"/>
<path d="M0 0 C1.0625 1.8125 1.0625 1.8125 2 4 C1.67 4.99 1.34 5.98 1 7 C-0.65 5.02 -2.3 3.04 -4 1 C-2.68 0.67 -1.36 0.34 0 0 Z " fill="#272727" transform="translate(771,259)"/>
<path d="M0 0 C0.99 0 1.98 0 3 0 C3.33 0.99 3.66 1.98 4 3 C3.01 3.66 2.02 4.32 1 5 C0.34 4.67 -0.32 4.34 -1 4 C-0.67 2.68 -0.34 1.36 0 0 Z M-3 4 C-2.01 4.495 -2.01 4.495 -1 5 C-1.99 5.495 -1.99 5.495 -3 6 C-3 5.34 -3 4.68 -3 4 Z " fill="#020202" transform="translate(750,232)"/>
<path d="M0 0 C0.33 0.99 0.66 1.98 1 3 C-0.98 3.99 -2.96 4.98 -5 6 C-4.625 3.5625 -4.625 3.5625 -4 1 C-2 0 -2 0 0 0 Z " fill="#E8E8E8" transform="translate(324,514)"/>
<path d="M0 0 C-0.33 0.66 -0.66 1.32 -1 2 C-1.99 2.33 -2.98 2.66 -4 3 C-4.99 2.01 -5.98 1.02 -7 0 C-4.3333581 -1.33332095 -2.83319697 -0.67102033 0 0 Z " fill="#171717" transform="translate(358,502)"/>
<path d="M0 0 C0.99 0.33 1.98 0.66 3 1 C3 1.66 3 2.32 3 3 C4.32 3.66 5.64 4.32 7 5 C4.69 5 2.38 5 0 5 C0 3.35 0 1.7 0 0 Z " fill="#444444" transform="translate(701,307)"/>
<path d="M0 0 C1.98 1.65 3.96 3.3 6 5 C4.68 5.33 3.36 5.66 2 6 C0.68 4.35 -0.64 2.7 -2 1 C-1.34 0.67 -0.68 0.34 0 0 Z " fill="#D4D4D4" transform="translate(737,228)"/>
<path d="M0 0 C0.33 0.99 0.66 1.98 1 3 C0.01 3.495 0.01 3.495 -1 4 C-1.99 3.67 -2.98 3.34 -4 3 C-4 4.65 -4 6.3 -4 8 C-4.33 8 -4.66 8 -5 8 C-5 6.02 -5 4.04 -5 2 C-3.35 1.34 -1.7 0.68 0 0 Z " fill="#3D3D3D" transform="translate(247,220)"/>
<path d="M0 0 C0.66 0.99 1.32 1.98 2 3 C1.125 6.1875 1.125 6.1875 0 9 C-0.33 9 -0.66 9 -1 9 C-1.33 6.36 -1.66 3.72 -2 1 C-1.34 0.67 -0.68 0.34 0 0 Z " fill="#131313" transform="translate(214,177)"/>
<path d="M0 0 C1.32 0.99 2.64 1.98 4 3 C3.67 5.31 3.34 7.62 3 10 C0.70366176 6.55549263 0.45983515 4.06187717 0 0 Z " fill="#404040" transform="translate(642,160)"/>
</svg>
