<svg width="645" height="674" xmlns="http://www.w3.org/2000/svg" version="1.1">
    <g>
        <title>Layer 1</title>
        <path d="m348.39948,5.68858c3.20983,-0.00108 6.41964,-0.00581 9.62947,-0.01113c5.13824,-0.00689 10.27632,-0.00118 15.41454,0.0144c1.90061,0.00481 3.80122,0.00674 5.70184,0.00542c10.77086,-0.00173 21.29165,0.46634 31.98012,1.83536c5.49281,0.66256 10.97334,0.91167 16.49957,1.09236c1.01578,0.03867 2.03156,0.07735 3.07813,0.11719c2.43214,0.09178 4.86432,0.17779 7.29687,0.25781c0.33,1.65 0.66,3.3 1,5c0.58137,0.09153 1.16273,0.18305 1.76172,0.27735c2.79185,0.90138 4.02423,2.17606 6.05078,4.28515c0.69609,0.72188 1.39219,1.44375 2.10938,2.1875c2.51452,2.72249 4.94755,5.50628 7.36328,8.31641c2.21531,2.49791 4.58382,4.81384 6.96484,7.15234c2.45635,2.50021 4.71309,5.15806 7,7.8125c2.19949,2.47443 4.54282,4.77493 6.90503,7.09253c1.78491,1.81515 3.45446,3.68513 5.1145,5.6145c3.54441,4.07631 7.20811,8.02373 10.91797,11.94922c1.31939,1.40199 2.63839,2.80434 3.95703,4.20703c0.64921,0.69046 1.29841,1.38091 1.96729,2.09229c6.11725,6.52222 12.1848,13.09091 18.13818,19.76318c4.85603,5.42316 9.8661,10.69873 14.86597,15.98877c4.40884,4.67174 8.73401,9.40083 13.00512,14.19873c2.31634,2.54268 4.74921,4.94669 7.20313,7.35547c1.78631,1.81963 3.45056,3.71157 5.11328,5.64453c2.41868,2.80827 4.9215,5.46221 7.5625,8.0625c3.2503,3.2003 6.24724,6.54225 9.21875,10c1.8555,2.08337 3.79348,4.04281 5.78125,6c4.69448,4.6308 9.03534,9.51529 13.125,14.6875c2.83471,3.49615 6.10146,6.55015 9.30469,9.70703c4.54822,4.49737 8.95517,9.03876 13.09765,13.91407c1.45557,1.7272 1.45557,1.7272 3.16407,3.28906c1.30859,1.40234 1.30859,1.40234 1.30859,3.40234c0.89719,0.38479 0.89719,0.38479 1.8125,0.77735c2.99829,1.67582 4.56413,3.97037 6.625,6.66406c1.81231,1.80777 3.06755,2.16607 5.5625,2.55859c0,1.98 0,3.96 0,6c0.80438,0.12375 1.60875,0.2475 2.4375,0.375c0.84563,0.20625 1.69125,0.4125 2.5625,0.625c1.72891,3.45782 1.48888,7.21937 1,11c-1.875,3.0625 -1.875,3.0625 -4,5c-0.66,0 -1.32,0 -2,0c0.04442,0.94601 0.04442,0.94601 0.08974,1.91113c0.88415,19.45171 1.05628,38.86021 1.04098,58.32779c-0.0023,4.35151 0.00125,8.70302 0.00398,13.05454c0.00441,8.48036 0.00351,16.96071 0.00059,25.44107c-0.00227,6.89333 -0.00256,13.78666 -0.00147,20.67999c0.00023,1.48012 0.00023,1.48012 0.00046,2.99014c0.00032,2.0053 0.00064,4.0106 0.00097,6.0159c0.00284,18.71851 -0.00041,37.43701 -0.0058,56.15551c-0.00448,16.04106 -0.00368,32.0821 0.00092,48.12315c0.00536,18.68337 0.00746,37.36674 0.00439,56.05011c-0.00032,1.9924 -0.00063,3.9848 -0.00094,5.9772c-0.00016,0.98004 -0.00031,1.96008 -0.00047,2.96982c-0.00086,6.88858 0.00059,13.77716 0.00295,20.66574c0.0028,8.38835 0.00203,16.77669 -0.00329,25.16504c-0.00262,4.27487 -0.00366,8.54972 -0.00035,12.82459c0.003,3.91747 0.00132,7.83491 -0.00397,11.75238c-0.00111,1.41189 -0.00057,2.82379 0.00187,4.23569c0.03729,23.39921 0.03729,23.39921 -4.44306,29.22271c-0.89139,1.2085 -0.89139,1.2085 -1.80078,2.44141c-3.09113,3.27032 -6.02244,4.22115 -10.44508,4.58729c-0.88255,0.07353 -1.76511,0.14706 -2.6744,0.22282c-4.60911,0.30978 -9.21785,0.53789 -13.8334,0.72675c-1.59106,0.06856 -1.59106,0.06856 -3.21427,0.13849c-3.49886,0.15004 -6.99788,0.29599 -10.49691,0.44184c-2.48671,0.10565 -4.97341,0.21154 -7.4601,0.31764c-5.23434,0.22276 -10.46875,0.44374 -15.70323,0.66307c-6.54349,0.27419 -13.08682,0.55163 -19.63012,0.83022c-49.65319,2.11354 -99.31237,4.04703 -148.97663,5.88024c-3.46231,0.1279 -6.92461,0.25613 -10.38691,0.38445c-24.39756,0.90412 -48.79536,1.80026 -73.19458,2.65875c-1.40505,0.04948 -1.40505,0.04948 -2.83848,0.09995c-7.22842,0.25453 -14.45685,0.50899 -21.6853,0.76268c-20.26017,0.71126 -40.51428,1.46456 -60.76272,2.46357c-20.83564,1.01921 -41.68989,1.54788 -62.54162,2.12131c-12.5318,0.34546 -25.06288,0.69787 -37.58984,1.19312c-0.95192,0.03569 -1.90383,0.07139 -2.88459,0.10817c-3.91957,0.16369 -7.78389,0.38331 -11.6723,0.91233c-4.25541,0.52796 -8.40688,0.67941 -12.68921,0.72168c-0.82046,0.00975 -1.64092,0.0195 -2.48625,0.02955c-34.99842,0.33072 -34.99842,0.33072 -49.72078,-4.26783c-1.54107,-0.47373 -1.54107,-0.47373 -3.11328,-0.95703c-7.58266,-3.07219 -12.28942,-9.55355 -16.88672,-16.04297c-0.74766,-1.04156 -1.49531,-2.08312 -2.26562,-3.15625c-10.02608,-15.59611 -9.9718,-32.8595 -9.85547,-50.82031c0.00659,-1.8524 0.01269,-3.70481 0.01832,-5.55722c0.02122,-5.82218 0.0599,-11.64416 0.10277,-17.46622c0.00666,-0.9331 0.01333,-1.8662 0.0202,-2.82757c0.08767,-12.0606 0.21022,-24.12066 0.35211,-36.18073c0.04423,-3.76234 0.08584,-7.5247 0.125,-11.28711c0.20197,-19.39407 0.47518,-38.77383 1.14393,-58.15786c0.31576,-9.39079 0.49776,-18.77677 0.60485,-28.17173c0.01201,-1.04755 0.01201,-1.04755 0.02425,-2.11627c0.03235,-2.86083 0.06383,-5.72167 0.09438,-8.58252c0.29884,-27.97373 0.8839,-55.91939 1.83425,-83.87933c0.08892,-2.6302 0.17754,-5.26041 0.26587,-7.89063c0.02217,-0.6591 0.04434,-1.3182 0.06719,-1.99728c0.39581,-11.85349 0.69573,-23.7084 0.97188,-35.56522c0.04212,-1.78935 0.08427,-3.57869 0.12645,-5.36804c0.16453,-7.01189 0.32892,-14.02377 0.47825,-21.03601c0.43893,-20.57613 1.24565,-41.06655 2.66501,-61.59912c0.30794,-4.54408 0.57338,-9.0899 0.82404,-13.63745c0.06016,-1.08327 0.06016,-1.08327 0.12155,-2.18842c0.07682,-1.39082 0.15318,-2.78167 0.22903,-4.17254c0.1212,-2.21929 0.2446,-4.43844 0.36817,-6.6576c0.34772,-6.2791 0.68781,-12.55792 0.96093,-18.84082c0.32505,-7.46647 0.7714,-14.81116 1.78516,-22.21875c0.32143,-2.54055 0.63416,-5.08222 0.9375,-7.625c0.15855,-1.2839 0.31711,-2.56781 0.48047,-3.89062c0.26189,-3.62855 0.37684,-6.57178 -0.48047,-10.10938c-2.9335,-2.93916 -6.23766,-4.34164 -10,-6c-6.18475,-4.10551 -10.67754,-9.9715 -13,-17c-1.4234,-11.08613 0.9143,-18.37876 7.61719,-27.10547c7.98523,-8.89022 20.27224,-15.72138 31.38281,-19.89453c1.1434,-0.44601 2.2868,-0.89203 3.46484,-1.35156c26.16557,-10.10396 52.79662,-16.74911 80.30689,-22.02295c2.83617,-0.54952 5.66499,-1.12598 8.4939,-1.71142c4.86638,-0.97676 9.75053,-1.65588 14.67187,-2.28907c7.40761,-0.97588 14.79761,-2.03012 22.18311,-3.16137c11.19948,-1.71194 22.35907,-3.12011 33.64892,-4.0691c2.45641,-0.20961 4.80017,-0.49306 7.23438,-0.91406c4.81791,-0.77262 9.66926,-0.87352 14.53906,-1.08594c0.77215,-0.03738 1.5443,-0.07476 2.33984,-0.11328c0.69497,-0.03029 1.38993,-0.06058 2.10596,-0.09179c2.00286,-0.13346 2.00286,-0.13346 3.85953,-0.67699c2.22696,-0.53039 4.30692,-0.74943 6.59018,-0.90138c0.89474,-0.05996 1.78948,-0.11993 2.71133,-0.1817c1.48045,-0.09073 1.48045,-0.09073 2.99082,-0.18329c1.06552,-0.0654 2.13104,-0.1308 3.22885,-0.19818c31.34582,-1.85075 62.63306,-2.35537 94.02998,-2.35933z" fill="#FEFEFE" id="svg_2" stroke="null"/>
        <path d="m345.39948,7.68858c3.20983,-0.00108 6.41964,-0.00581 9.62947,-0.01113c5.13824,-0.00689 10.27632,-0.00118 15.41454,0.0144c1.90061,0.00481 3.80122,0.00674 5.70184,0.00542c10.77086,-0.00173 21.29165,0.46634 31.98012,1.83536c5.49281,0.66256 10.97334,0.91167 16.49957,1.09236c1.01578,0.03867 2.03156,0.07735 3.07813,0.11719c2.43214,0.09178 4.86432,0.17779 7.29687,0.25781c0.33,1.65 0.66,3.3 1,5c0.58137,0.09153 1.16273,0.18305 1.76172,0.27735c2.79185,0.90138 4.02423,2.17606 6.05078,4.28515c0.69609,0.72188 1.39219,1.44375 2.10938,2.1875c2.51452,2.72249 4.94755,5.50628 7.36328,8.31641c2.21531,2.49791 4.58382,4.81384 6.96484,7.15234c2.45635,2.50021 4.71309,5.15806 7,7.8125c2.19949,2.47443 4.54282,4.77493 6.90503,7.09253c1.78491,1.81515 3.45446,3.68513 5.1145,5.6145c3.54441,4.07631 7.20811,8.02373 10.91797,11.94922c1.31939,1.40199 2.63839,2.80434 3.95703,4.20703c0.64921,0.69046 1.29841,1.38091 1.96729,2.09229c6.11725,6.52222 12.1848,13.09091 18.13818,19.76318c4.85603,5.42316 9.8661,10.69873 14.86597,15.98877c4.40884,4.67174 8.73401,9.40083 13.00512,14.19873c2.31634,2.54268 4.74921,4.94669 7.20313,7.35547c1.78631,1.81963 3.45056,3.71157 5.11328,5.64453c2.41868,2.80827 4.9215,5.46221 7.5625,8.0625c3.2503,3.2003 6.24724,6.54225 9.21875,10c1.8555,2.08337 3.79348,4.04281 5.78125,6c4.69448,4.6308 9.03534,9.51529 13.125,14.6875c2.83471,3.49615 6.10146,6.55015 9.30469,9.70703c4.54822,4.49737 8.95517,9.03876 13.09765,13.91407c1.45557,1.7272 1.45557,1.7272 3.16407,3.28906c1.30859,1.40234 1.30859,1.40234 1.30859,3.40234c0.89719,0.38479 0.89719,0.38479 1.8125,0.77735c2.99829,1.67582 4.56413,3.97037 6.625,6.66406c1.81231,1.80777 3.06755,2.16607 5.5625,2.55859c0,1.98 0,3.96 0,6c0.80438,0.12375 1.60875,0.2475 2.4375,0.375c0.84563,0.20625 1.69125,0.4125 2.5625,0.625c1.72891,3.45782 1.48888,7.21937 1,11c-1.875,3.0625 -1.875,3.0625 -4,5c-0.66,0 -1.32,0 -2,0c0.04442,0.94601 0.04442,0.94601 0.08974,1.91113c0.88415,19.45171 1.05628,38.86021 1.04098,58.32779c-0.0023,4.35151 0.00125,8.70302 0.00398,13.05454c0.00441,8.48036 0.00351,16.96071 0.00059,25.44107c-0.00227,6.89333 -0.00256,13.78666 -0.00147,20.67999c0.00023,1.48012 0.00023,1.48012 0.00046,2.99014c0.00032,2.0053 0.00064,4.0106 0.00097,6.0159c0.00284,18.71851 -0.00041,37.43701 -0.0058,56.15551c-0.00448,16.04106 -0.00368,32.0821 0.00092,48.12315c0.00536,18.68337 0.00746,37.36674 0.00439,56.05011c-0.00032,1.9924 -0.00063,3.9848 -0.00094,5.9772c-0.00016,0.98004 -0.00031,1.96008 -0.00047,2.96982c-0.00086,6.88858 0.00059,13.77716 0.00295,20.66574c0.0028,8.38835 0.00203,16.77669 -0.00329,25.16504c-0.00262,4.27487 -0.00366,8.54972 -0.00035,12.82459c0.003,3.91747 0.00132,7.83491 -0.00397,11.75238c-0.00111,1.41189 -0.00057,2.82379 0.00187,4.23569c0.03729,23.39921 0.03729,23.39921 -4.44306,29.22271c-0.89139,1.2085 -0.89139,1.2085 -1.80078,2.44141c-3.09113,3.27032 -6.02244,4.22115 -10.44508,4.58729c-0.88255,0.07353 -1.76511,0.14706 -2.6744,0.22282c-4.60911,0.30978 -9.21785,0.53789 -13.8334,0.72675c-1.59106,0.06856 -1.59106,0.06856 -3.21427,0.13849c-3.49886,0.15004 -6.99788,0.29599 -10.49691,0.44184c-2.48671,0.10565 -4.97341,0.21154 -7.4601,0.31764c-5.23434,0.22276 -10.46875,0.44374 -15.70323,0.66307c-6.54349,0.27419 -13.08682,0.55163 -19.63012,0.83022c-49.65319,2.11354 -99.31237,4.04703 -148.97663,5.88024c-3.46231,0.1279 -6.92461,0.25613 -10.38691,0.38445c-24.39756,0.90412 -48.79536,1.80026 -73.19458,2.65875c-1.40505,0.04948 -1.40505,0.04948 -2.83848,0.09995c-7.22842,0.25453 -14.45685,0.50899 -21.6853,0.76268c-20.26017,0.71126 -40.51428,1.46456 -60.76272,2.46357c-20.83564,1.01921 -41.68989,1.54788 -62.54162,2.12131c-12.5318,0.34546 -25.06288,0.69787 -37.58984,1.19312c-0.95192,0.03569 -1.90383,0.07139 -2.88459,0.10817c-3.91957,0.16369 -7.78389,0.38331 -11.6723,0.91233c-4.25541,0.52796 -8.40688,0.67941 -12.68921,0.72168c-0.82046,0.00975 -1.64092,0.0195 -2.48625,0.02955c-34.99842,0.33072 -34.99842,0.33072 -49.72078,-4.26783c-1.54107,-0.47373 -1.54107,-0.47373 -3.11328,-0.95703c-7.58266,-3.07219 -12.28942,-9.55355 -16.88672,-16.04297c-0.74766,-1.04156 -1.49531,-2.08312 -2.26562,-3.15625c-10.02608,-15.59611 -9.9718,-32.8595 -9.85547,-50.82031c0.00659,-1.8524 0.01269,-3.70481 0.01832,-5.55722c0.02122,-5.82218 0.0599,-11.64416 0.10277,-17.46622c0.00666,-0.9331 0.01333,-1.8662 0.0202,-2.82757c0.08767,-12.0606 0.21022,-24.12066 0.35211,-36.18073c0.04423,-3.76234 0.08584,-7.5247 0.125,-11.28711c0.20197,-19.39407 0.47518,-38.77383 1.14393,-58.15786c0.31576,-9.39079 0.49776,-18.77677 0.60485,-28.17173c0.01201,-1.04755 0.01201,-1.04755 0.02425,-2.11627c0.03235,-2.86083 0.06383,-5.72167 0.09438,-8.58252c0.29884,-27.97373 0.8839,-55.91939 1.83425,-83.87933c0.08892,-2.6302 0.17754,-5.26041 0.26587,-7.89063c0.02217,-0.6591 0.04434,-1.3182 0.06719,-1.99728c0.39581,-11.85349 0.69573,-23.7084 0.97188,-35.56522c0.04212,-1.78935 0.08427,-3.57869 0.12645,-5.36804c0.16453,-7.01189 0.32892,-14.02377 0.47825,-21.03601c0.43893,-20.57613 1.24565,-41.06655 2.66501,-61.59912c0.30794,-4.54408 0.57338,-9.0899 0.82404,-13.63745c0.06016,-1.08327 0.06016,-1.08327 0.12155,-2.18842c0.07682,-1.39082 0.15318,-2.78167 0.22903,-4.17254c0.1212,-2.21929 0.2446,-4.43844 0.36817,-6.6576c0.34772,-6.2791 0.68781,-12.55792 0.96093,-18.84082c0.32505,-7.46647 0.7714,-14.81116 1.78516,-22.21875c0.32143,-2.54055 0.63416,-5.08222 0.9375,-7.625c0.15855,-1.2839 0.31711,-2.56781 0.48047,-3.89062c0.26189,-3.62855 0.37684,-6.57178 -0.48047,-10.10938c-2.9335,-2.93916 -6.23766,-4.34164 -10,-6c-6.18475,-4.10551 -10.67754,-9.9715 -13,-17c-1.4234,-11.08613 0.9143,-18.37876 7.61719,-27.10547c7.98523,-8.89022 20.27224,-15.72138 31.38281,-19.89453c1.1434,-0.44601 2.2868,-0.89203 3.46484,-1.35156c26.16557,-10.10396 52.79662,-16.74911 80.30689,-22.02295c2.83617,-0.54952 5.66499,-1.12598 8.4939,-1.71142c4.86638,-0.97676 9.75053,-1.65588 14.67187,-2.28907c7.40761,-0.97588 14.79761,-2.03012 22.18311,-3.16137c11.19948,-1.71194 22.35907,-3.12011 33.64892,-4.0691c2.45641,-0.20961 4.80017,-0.49306 7.23438,-0.91406c4.81791,-0.77262 9.66926,-0.87352 14.53906,-1.08594c0.77215,-0.03738 1.5443,-0.07476 2.33984,-0.11328c0.69497,-0.03029 1.38993,-0.06058 2.10596,-0.09179c2.00286,-0.13346 2.00286,-0.13346 3.85953,-0.67699c2.22696,-0.53039 4.30692,-0.74943 6.59018,-0.90138c0.89474,-0.05996 1.78948,-0.11993 2.71133,-0.1817c1.48045,-0.09073 1.48045,-0.09073 2.99082,-0.18329c1.06552,-0.0654 2.13104,-0.1308 3.22885,-0.19818c31.34582,-1.85075 62.63306,-2.35537 94.02998,-2.35933zm-103.33311,20.18184c-3.23302,0.20273 -6.46803,0.36509 -9.70307,0.53192c-15.74916,0.86553 -31.42555,2.42904 -47.11328,4.03515c-1.02212,0.10342 -2.04423,0.20684 -3.09732,0.31339c-12.15266,1.2387 -24.17646,2.77509 -36.20419,4.91003c-2.91174,0.50671 -5.83169,0.955 -8.75318,1.40158c-1.52367,0.2359 -1.52367,0.2359 -3.07812,0.47657c-2.01769,0.31081 -4.03594,0.61803 -6.05469,0.92187c-6.23231,0.97231 -12.2915,2.26827 -18.39697,3.85205c-3.12093,0.80439 -6.25812,1.47941 -9.41553,2.12451c-5.29503,1.11909 -10.55898,2.32731 -15.8125,3.625c-0.66677,0.16234 -1.33354,0.32469 -2.02051,0.49195c-3.61135,0.90375 -6.97376,2.04742 -10.41699,3.44555c-2.22316,0.64605 -4.45297,1.26945 -6.6875,1.875c-5.97609,1.69508 -11.63776,3.60728 -17.3125,6.125c-0.61214,0.26797 -1.22429,0.53593 -1.85498,0.81201c-20.20933,8.2702 -20.20933,8.2702 -35.14502,23.18799c-1.30689,3.56687 -1.50417,6.44353 -0.32812,10.07422c3.16398,6.80775 8.3104,13.77017 15.32812,16.92578c2.00487,-0.25754 2.00487,-0.25754 4,-1c1.33164,-0.34005 2.66477,-0.67433 4,-1c0.13535,1.21688 0.2707,2.43375 0.41016,3.6875c0.70055,2.79484 1.20763,4.00964 3.48779,5.81641c2.46999,1.31075 4.95569,2.42756 7.53955,3.49609c0.87205,0.39317 1.7441,0.78633 2.64258,1.19141c4.78027,2.17368 4.78027,2.17368 9.91992,2.80859c0,0.66 0,1.32 0,2c-2.06331,-0.62231 -4.12562,-1.24797 -6.1875,-1.875c-1.14855,-0.34804 -2.29711,-0.69609 -3.48047,-1.05468c-3.33203,-1.07032 -3.33203,-1.07032 -6.07031,-2.20313c-2.32487,-1.04619 -2.32487,-1.04619 -5.26172,-0.86719c-0.1503,10.30818 0.28393,20.5214 0.84189,30.80964c1.22124,22.97894 1.44206,45.90787 1.39383,68.91428c-0.00905,5.27143 -0.00702,10.54285 -0.00664,15.81429c-0.00092,8.83705 -0.00945,17.67407 -0.02327,26.51111c-0.01571,10.08328 -0.021,20.16652 -0.02026,30.24981c0.00068,10.93062 -0.00631,21.86123 -0.01545,32.79185c-0.00209,3.06445 -0.00284,6.12889 -0.00324,9.19334c-0.00639,24.98437 -0.32301,49.94048 -0.97182,74.91629c-0.23685,9.2123 -0.41528,18.42547 -0.58396,27.63924c-0.02248,1.21841 -0.02248,1.21841 -0.04543,2.46145c-0.09237,5.01066 -0.18301,10.02135 -0.27283,15.03205c-0.04786,2.66744 -0.09601,5.33486 -0.14424,8.00229c-0.16984,9.39672 -0.33837,18.79347 -0.50576,28.19024c-0.15359,8.62022 -0.31043,17.24037 -0.46869,25.8605c-0.13816,7.53422 -0.27382,15.06848 -0.4077,22.60278c-0.07899,4.44219 -0.15887,8.88436 -0.24141,13.32649c-0.19328,10.43971 -0.36109,20.87939 -0.49366,31.32005c-0.03212,2.42174 -0.06856,4.84339 -0.10553,7.26506c-0.05962,4.01924 -0.1017,8.03835 -0.13165,12.05792c-0.01341,1.4939 -0.03194,2.98777 -0.0562,4.48154c-0.18507,11.79678 0.65451,23.92725 8.26202,33.55978c14.07385,12.6232 29.9314,14.58341 47.94269,13.8365c3.38672,-0.18467 6.77176,-0.38245 10.1567,-0.59641c3.82694,-0.24119 7.65488,-0.46577 11.48273,-0.69199c1.17822,-0.07007 1.17822,-0.07007 2.38023,-0.14155c8.03756,-0.47394 16.07822,-0.869 24.1209,-1.24444c0.70805,-0.03316 1.41611,-0.06632 2.14561,-0.10049c3.65452,-0.17084 7.3091,-0.34014 10.96373,-0.50832c4.71164,-0.21685 9.42313,-0.43694 14.1346,-0.65742c12.52471,-0.58567 25.0496,-1.16748 37.57458,-1.74724c8.29416,-0.38395 16.58823,-0.76968 24.88216,-1.15857c3.90158,-0.18283 7.80319,-0.36457 11.70496,-0.54337c16.49447,-0.75623 32.96668,-1.63921 49.43939,-2.77926c8.62386,-0.59068 17.22139,-1.01498 25.86469,-1.19478c2.00331,-0.05121 4.00662,-0.10243 6.00992,-0.15435c2.06057,-0.05271 4.12118,-0.10295 6.18182,-0.15257c24.35334,-0.59172 48.64288,-1.57833 72.9567,-3.12594c14.26352,-0.90518 28.50246,-1.49231 42.78906,-1.86011c4.76972,-0.12436 9.51046,-0.34231 14.26953,-0.67969c7.05991,-0.49517 14.1133,-0.68517 21.1875,-0.875c17.14753,-0.47376 34.27342,-1.35991 51.40467,-2.22783c16.71903,-0.84664 33.4316,-1.69091 50.16784,-2.10615c3.08093,-0.07861 6.16004,-0.18078 9.23999,-0.29102c1.28552,-0.03448 2.57104,-0.06896 3.89551,-0.10449c1.33958,-0.05484 2.6791,-0.11114 4.01855,-0.16894c1.20866,-0.04303 2.41732,-0.08605 3.6626,-0.13038c5.47404,-0.95333 8.86423,-3.44897 12.06274,-7.90599c3.46321,-5.7503 3.05516,-11.64762 2.99984,-18.18794c0.00631,-1.36974 0.01482,-2.73947 0.02532,-4.10918c0.02244,-3.75091 0.01396,-7.50121 0.00031,-11.25213c-0.00928,-4.0526 0.0103,-8.10508 0.02632,-12.15764c0.02385,-7.02688 0.02945,-14.05358 0.02266,-21.0805c-0.00984,-10.20752 0.008,-20.41486 0.03236,-30.62235c0.03893,-16.62539 0.05556,-33.25073 0.05823,-49.87616c0.00263,-16.03844 0.0156,-32.07682 0.04297,-48.11523c0.00168,-0.98263 0.00335,-1.96525 0.00507,-2.97766c0.00847,-4.93604 0.01714,-9.87208 0.0259,-14.80812c0.10206,-57.83438 0.13569,-115.66882 0.12162,-173.50329c-0.77456,-0.04503 -1.54911,-0.09005 -2.34714,-0.13645c-29.96793,-1.74457 -59.90345,-3.56116 -89.77786,-6.55105c-1.08681,-0.10823 -2.17362,-0.21646 -3.29337,-0.32797c-3.05118,-0.30626 -6.10172,-0.618 -9.15194,-0.93375c-1.33476,-0.13728 -1.33476,-0.13728 -2.69649,-0.27734c-3.96741,-0.42236 -7.82406,-0.96197 -11.7332,-1.77344c-1.65644,-0.16885 -3.31575,-0.31135 -4.97656,-0.42968c-0.91781,-0.07348 -1.83563,-0.14696 -2.78125,-0.22266c-1.91864,-0.149 -3.83795,-0.28956 -5.75781,-0.42188c-1.37286,-0.11408 -1.37286,-0.11408 -2.77344,-0.23046c-0.83225,-0.06172 -1.6645,-0.12343 -2.52198,-0.18702c-2.64529,-0.61426 -3.55739,-1.36095 -5.18896,-3.5083c-0.91625,-2.78125 -1.68389,-5.47554 -2.375,-8.3125c-0.32134,-1.27242 -0.32134,-1.27242 -0.64917,-2.57055c-3.01634,-12.07751 -5.67762,-24.23729 -8.36191,-36.39174c-0.676,-3.06018 -1.35276,-6.1202 -2.02987,-9.18013c-0.34817,-1.57385 -0.69603,-3.14776 -1.04358,-4.72174c-2.1383,-9.67689 -4.35849,-19.32491 -6.72797,-28.94834c-2.57757,-10.50604 -4.65782,-21.07607 -6.64844,-31.70703c-1.07803,-5.7564 -2.2194,-11.49719 -3.41406,-17.23047c-0.16323,-0.79777 -0.32645,-1.59553 -0.49463,-2.41748c-0.49921,-3.55681 -0.49921,-3.55681 -2.25537,-6.52002c-0.4775,-2.13152 -0.9021,-4.27494 -1.30469,-6.42187c-0.12464,-0.65583 -0.24929,-1.31166 -0.37771,-1.98737c-0.40122,-2.11291 -0.79733,-4.22673 -1.1926,-6.34076c-2.84991,-17.47251 -2.84991,-17.47251 -8.125,-34.25c-61.99728,-4.56005 -124.88611,-5.1692 -186.93365,-1.12957z" fill="#1F1F1F" id="svg_3"/>
        <path stroke="null" stroke-dasharray="2,2" d="m345.39948,7.68858c3.20983,-0.00108 6.41964,-0.00581 9.62947,-0.01113c5.13824,-0.00689 10.27632,-0.00118 15.41454,0.0144c1.90061,0.00481 3.80122,0.00674 5.70184,0.00542c10.77086,-0.00173 21.29165,0.46634 31.98012,1.83536c5.49281,0.66256 10.97334,0.91167 16.49957,1.09236c1.01578,0.03867 2.03156,0.07735 3.07813,0.11719c2.43214,0.09178 4.86432,0.17779 7.29687,0.25781c0.33,1.65 0.66,3.3 1,5c0.58137,0.09153 1.16273,0.18305 1.76172,0.27735c2.79185,0.90138 4.02423,2.17606 6.05078,4.28515c0.69609,0.72188 1.39219,1.44375 2.10938,2.1875c2.51452,2.72249 4.94755,5.50628 7.36328,8.31641c2.21531,2.49791 4.58382,4.81384 6.96484,7.15234c2.45635,2.50021 4.71309,5.15806 7,7.8125c2.19949,2.47443 4.54282,4.77493 6.90503,7.09253c1.78491,1.81515 3.45446,3.68513 5.1145,5.6145c3.54441,4.07631 7.20811,8.02373 10.91797,11.94922c1.31939,1.40199 2.63839,2.80434 3.95703,4.20703c0.64921,0.69046 1.29841,1.38091 1.96729,2.09229c6.11725,6.52222 12.1848,13.09091 18.13818,19.76318c4.85603,5.42316 9.8661,10.69873 14.86597,15.98877c4.40884,4.67174 8.73401,9.40083 13.00512,14.19873c2.31634,2.54268 4.74921,4.94669 7.20313,7.35547c1.78631,1.81963 3.45056,3.71157 5.11328,5.64453c2.41868,2.80827 4.9215,5.46221 7.5625,8.0625c3.2503,3.2003 6.24724,6.54225 9.21875,10c1.8555,2.08337 3.79348,4.04281 5.78125,6c4.69448,4.6308 9.03534,9.51529 13.125,14.6875c2.83471,3.49615 6.10146,6.55015 9.30469,9.70703c4.54822,4.49737 8.95517,9.03876 13.09765,13.91407c1.45557,1.7272 1.45557,1.7272 3.16407,3.28906c1.30859,1.40234 1.30859,1.40234 1.30859,3.40234c0.55688,0.20625 1.11375,0.4125 1.6875,0.625c3.30853,1.96724 5.02806,4.26563 7.3125,7.375c0,0.99 0,1.98 0,3c0.99,0 1.98,0 3,0c0,1.32 0,2.64 0,4c-3.04984,1.52492 -5.64234,1.23563 -9,1c-1.51562,-1.28125 -1.51562,-1.28125 -3,-3c-0.53238,-0.59297 -1.06477,-1.18593 -1.61328,-1.79687c-0.56074,-0.64453 -1.12149,-1.28906 -1.69922,-1.95313c-0.6123,-0.70254 -1.22461,-1.40508 -1.85547,-2.1289c-1.66405,-1.92662 -3.31187,-3.86586 -4.95703,-5.8086c-2.49629,-2.91672 -5.12615,-5.62909 -7.875,-8.3125c-4.61123,-4.51353 -9.01323,-9.1063 -13.21875,-14c-1.8555,-2.08337 -3.79348,-4.04281 -5.78125,-6c-3.2503,-3.20029 -6.24724,-6.54224 -9.21875,-10c-2.48382,-2.78885 -5.14836,-5.37687 -7.80859,-7.99609c-2.54604,-2.58637 -4.89288,-5.31926 -7.25782,-8.07031c-1.67488,-1.88854 -3.41432,-3.66515 -5.21484,-5.4336c-3.03175,-2.98459 -5.83603,-6.11046 -8.61719,-9.32812c-5.22216,-6.0239 -10.54828,-11.9002 -16.23047,-17.49219c-1.64614,-1.67338 -3.18392,-3.40062 -4.71484,-5.17969c-3.58622,-4.15806 -7.31638,-8.17404 -11.0625,-12.1875c-0.89731,-0.96293 -0.89731,-0.96293 -1.81274,-1.94531c-2.51417,-2.68774 -5.0416,-5.34652 -7.64429,-7.94922c-2.73724,-2.73724 -5.36488,-5.56551 -7.98047,-8.41797c-1.06246,-1.15498 -2.12496,-2.30993 -3.1875,-3.46484c-0.53883,-0.58636 -1.07766,-1.17273 -1.63281,-1.77686c-2.55509,-2.77804 -5.11793,-5.5489 -7.67969,-8.3208c-3.76211,-4.07238 -7.51068,-8.15665 -11.25,-12.25c-5.04809,-5.517 -10.16075,-10.97156 -15.2981,-16.40551c-3.75007,-3.98057 -7.37833,-8.03718 -10.91772,-12.20679c-1.40475,-1.68684 -1.40475,-1.68684 -3.47168,-2.5752c0,1.65 0,3.3 0,5c-1.32,0 -2.64,0 -4,0c-0.66,0.66 -1.32,1.32 -2,2c-2.18284,-2.65737 -3.27634,-4.65569 -4,-8c-61.99728,-4.56005 -124.88611,-5.1692 -186.93365,-1.12957c-3.23302,0.20273 -6.46803,0.36509 -9.70307,0.53192c-15.74916,0.86553 -31.42555,2.42904 -47.11328,4.03515c-1.02212,0.10342 -2.04423,0.20684 -3.09732,0.31339c-12.15266,1.2387 -24.17646,2.77509 -36.20419,4.91003c-2.91174,0.50671 -5.83169,0.955 -8.75318,1.40158c-1.52367,0.2359 -1.52367,0.2359 -3.07812,0.47657c-2.01769,0.31081 -4.03594,0.61803 -6.05469,0.92187c-6.23231,0.97231 -12.2915,2.26827 -18.39697,3.85205c-3.12093,0.80439 -6.25812,1.47941 -9.41553,2.12451c-5.29503,1.11909 -10.55898,2.32731 -15.8125,3.625c-0.66677,0.16234 -1.33354,0.32469 -2.02051,0.49195c-3.61135,0.90375 -6.97376,2.04742 -10.41699,3.44555c-2.22316,0.64605 -4.45297,1.26945 -6.6875,1.875c-5.97609,1.69508 -11.63776,3.60728 -17.3125,6.125c-0.61214,0.26797 -1.22429,0.53593 -1.85498,0.81201c-20.72811,8.3698 -20.72811,8.3698 -34.99268,24.24268c-0.80547,6.82455 1.93776,11.11339 5.66016,16.63281c2.70579,2.86041 5.57896,5.65067 9.1875,7.3125c2.08168,-0.27038 2.08168,-0.27038 4,-1c1.33333,-0.33333 2.66667,-0.66666 4,-1c2.29014,3.43521 2.17843,4.98533 2,9c0.81727,0.25524 1.63453,0.51047 2.47656,0.77344c4.06871,1.41638 7.96463,3.10162 11.89844,4.85156c0.73605,0.32485 1.47211,0.64969 2.23047,0.98438c1.79924,0.79447 3.59704,1.59221 5.39453,2.39062c0,0.66 0,1.32 0,2c-5.41167,-0.31833 -9.74443,-1.55309 -14.80078,-3.55078c-1.16314,-0.45673 -2.32628,-0.91346 -3.52466,-1.38403c-0.8826,-0.35151 -1.76521,-0.70302 -2.67456,-1.06519c0.05535,0.73187 0.1107,1.46373 0.16772,2.21778c0.26216,3.51035 0.51591,7.02126 0.76978,10.53222c0.13052,1.72283 0.13052,1.72283 0.26367,3.48047c1.95004,27.30051 1.95069,54.61929 1.93316,81.97254c-0.00259,5.31156 -0.00017,10.62311 0.00138,15.93467c0.00181,8.92669 -0.00054,17.85336 -0.00534,26.78005c-0.00541,10.19373 -0.00369,20.38744 0.00183,30.58117c0.0046,8.86486 0.00514,17.72971 0.00256,26.59457c-0.00153,5.24413 -0.00186,10.48825 0.00154,15.73237c0.01401,25.14245 -0.28302,50.25453 -0.94036,75.3883c-0.23837,9.20777 -0.41644,18.41643 -0.58486,27.62571c-0.01499,0.81232 -0.02997,1.62465 -0.04542,2.46159c-0.09237,5.01061 -0.18303,10.02126 -0.27284,15.03191c-0.04786,2.66744 -0.09601,5.33486 -0.14424,8.00229c-0.16984,9.39672 -0.33837,18.79347 -0.50576,28.19024c-0.15359,8.62022 -0.31043,17.24037 -0.46869,25.8605c-0.13816,7.53422 -0.27382,15.06848 -0.4077,22.60278c-0.07899,4.44219 -0.15887,8.88436 -0.24141,13.32649c-0.19328,10.43971 -0.36109,20.87939 -0.49366,31.32005c-0.03212,2.42174 -0.06856,4.84339 -0.10553,7.26506c-0.05962,4.01924 -0.1017,8.03835 -0.13165,12.05792c-0.01341,1.4939 -0.03194,2.98777 -0.0562,4.48154c-0.17169,10.94413 0.30882,23.46267 7.26202,32.55978c12.14736,10.85558 26.27197,14.08893 42,15c-0.57345,2.86725 -0.86145,3.86145 -3,6c-1.95312,0.27344 -1.95312,0.27344 -4.25,0.375c-4.578,0.3876 -6.94218,2.05886 -10.75,4.625c-10.10133,0.71972 -23.85893,-1.65977 -31.98828,-7.98437c-4.58638,-4.59529 -8.35107,-9.6794 -12.01172,-15.01563c-0.60199,-0.84176 -1.20398,-1.68351 -1.82422,-2.55078c-9.08973,-14.35583 -8.4206,-32.09278 -8.30469,-48.4375c0.00724,-1.85155 0.01391,-3.7031 0.02004,-5.55466c0.02287,-5.81913 0.06421,-11.63805 0.10887,-17.45706c0.0068,-0.9329 0.0136,-1.8658 0.0206,-2.82697c0.08831,-12.06079 0.20982,-24.12105 0.35171,-36.18133c0.04423,-3.76234 0.08584,-7.5247 0.125,-11.28711c0.20197,-19.39407 0.47518,-38.77383 1.14393,-58.15786c0.31576,-9.39079 0.49776,-18.77677 0.60485,-28.17173c0.01201,-1.04755 0.01201,-1.04755 0.02425,-2.11627c0.03235,-2.86083 0.06383,-5.72167 0.09438,-8.58252c0.29884,-27.97373 0.8839,-55.91939 1.83425,-83.87933c0.08892,-2.6302 0.17754,-5.26041 0.26587,-7.89063c0.02217,-0.6591 0.04434,-1.3182 0.06719,-1.99728c0.39581,-11.85349 0.69573,-23.7084 0.97188,-35.56522c0.04212,-1.78935 0.08427,-3.57869 0.12645,-5.36804c0.16453,-7.01189 0.32892,-14.02377 0.47825,-21.03601c0.43893,-20.57613 1.24565,-41.06655 2.66501,-61.59912c0.30794,-4.54408 0.57338,-9.0899 0.82404,-13.63745c0.06016,-1.08327 0.06016,-1.08327 0.12155,-2.18842c0.07682,-1.39082 0.15318,-2.78167 0.22903,-4.17254c0.1212,-2.21929 0.2446,-4.43844 0.36817,-6.6576c0.34772,-6.2791 0.68781,-12.55792 0.96093,-18.84082c0.32505,-7.46647 0.7714,-14.81116 1.78516,-22.21875c0.32143,-2.54055 0.63416,-5.08222 0.9375,-7.625c0.15855,-1.2839 0.31711,-2.56781 0.48047,-3.89062c0.26189,-3.62855 0.37684,-6.57178 -0.48047,-10.10938c-2.9335,-2.93916 -6.23766,-4.34164 -10,-6c-6.18475,-4.10551 -10.67754,-9.9715 -13,-17c-1.4234,-11.08613 0.9143,-18.37876 7.61719,-27.10547c7.98523,-8.89022 20.27224,-15.72138 31.38281,-19.89453c1.1434,-0.44601 2.2868,-0.89203 3.46484,-1.35156c26.16557,-10.10396 52.79662,-16.74911 80.30689,-22.02295c2.83617,-0.54952 5.66499,-1.12598 8.4939,-1.71142c4.86638,-0.97676 9.75053,-1.65588 14.67187,-2.28907c7.40761,-0.97588 14.79761,-2.03012 22.18311,-3.16137c11.19948,-1.71194 22.35907,-3.12011 33.64892,-4.0691c2.45641,-0.20961 4.80017,-0.49306 7.23438,-0.91406c4.81791,-0.77262 9.66926,-0.87352 14.53906,-1.08594c0.77215,-0.03738 1.5443,-0.07476 2.33984,-0.11328c0.69497,-0.03029 1.38993,-0.06058 2.10596,-0.09179c2.00286,-0.13346 2.00286,-0.13346 3.85953,-0.67699c2.22696,-0.53039 4.30692,-0.74943 6.59018,-0.90138c0.89474,-0.05996 1.78948,-0.11993 2.71133,-0.1817c1.48045,-0.09073 1.48045,-0.09073 2.99082,-0.18329c1.06552,-0.0654 2.13104,-0.1308 3.22885,-0.19818c31.34582,-1.85075 62.63306,-2.35537 94.02998,-2.35933z" fill="#1B1B1B" id="svg_4"/>
        <path d="m439,31c3.22212,1.38691 5.03354,2.92437 7.25,5.625c2.47391,2.92852 5.01267,5.69072 7.75,8.375c3.27202,3.22159 6.29316,6.58592 9.28516,10.06641c1.67488,1.88854 3.41432,3.66515 5.21484,5.43359c2.29326,2.25798 4.46428,4.55997 6.5625,7c4.14626,4.81684 8.51285,9.4246 12.87524,14.04492c2.64079,2.80843 5.23717,5.61978 7.67945,8.60352c2.3313,2.78991 4.77872,5.31686 7.38281,7.85156c5.14792,5.07344 10.20937,10.1401 14.91406,15.62891c2.83871,3.22676 5.77369,6.35911 8.71094,9.49609c0.90263,0.96438 0.90263,0.96438 1.82349,1.94824c1.23488,1.31874 2.46999,2.63726 3.70532,3.95557c14.17591,15.13572 14.17591,15.13572 20.30713,22.24853c2.1626,2.42058 4.47801,4.6716 6.79297,6.94532c1.81087,1.84328 3.4993,3.75557 5.18359,5.71484c2.41868,2.80826 4.9215,5.46221 7.5625,8.0625c3.2503,3.2003 6.24724,6.54225 9.21875,10c1.8555,2.08337 3.79348,4.04281 5.78125,6c4.69448,4.63079 9.03534,9.51529 13.125,14.6875c2.89564,3.57129 6.21606,6.68819 9.55078,9.84766c0.87012,0.83402 1.74024,1.66804 2.63672,2.52734c0.88301,0.8366 1.76602,1.6732 2.67578,2.53516c2.01172,2.40234 2.01172,2.40234 2.01172,6.40234c-0.85731,-0.05986 -1.71461,-0.11972 -2.5979,-0.1814c-10.60836,-0.72558 -21.22154,-1.31756 -31.8396,-1.8811c-1.7142,-0.09171 -3.42839,-0.1835 -5.14258,-0.27539c-4.13992,-0.22173 -8.2799,-0.44226 -12.41992,-0.66211c0.63938,-0.30937 1.27875,-0.61875 1.9375,-0.9375c1.99861,-0.89702 1.99861,-0.89702 3.0625,-2.0625c2.53215,-0.10141 5.0305,-0.14079 7.5625,-0.125c0.73436,0.00193 1.46873,0.00387 2.22534,0.00586c3.54344,0.02836 7.01267,0.10267 10.52466,0.61914c4.90778,0.66546 9.74319,0.5818 14.6875,0.5c0.33,-0.99 0.66,-1.98 1,-3c-0.98807,-0.05535 -1.97613,-0.1107 -2.99414,-0.16772c-3.69775,-0.20787 -7.39529,-0.41934 -11.09277,-0.63184c-1.59435,-0.09114 -3.18875,-0.18133 -4.78321,-0.27051c-2.30386,-0.12903 -4.6075,-0.26159 -6.91113,-0.39477c-0.70242,-0.03859 -1.40484,-0.07718 -2.12854,-0.11693c-4.00284,-0.23523 -7.94024,-0.64718 -11.91821,-1.16971c-4.37632,-0.50074 -8.77586,-0.71106 -13.172,-0.96727c-1.03512,-0.0628 -2.07023,-0.1256 -3.13672,-0.19031c-3.28762,-0.1994 -6.57542,-0.39558 -9.86328,-0.59094c-4.33352,-0.25749 -8.66681,-0.51835 -13,-0.78125c-0.98355,-0.05732 -1.96711,-0.11465 -2.98047,-0.17371c-4.15716,-0.25247 -8.28168,-0.54249 -12.41211,-1.08386c-2.83357,-0.36225 -5.47969,-0.57977 -8.32617,-0.55884c-1.17949,0.00484 -1.17949,0.00484 -2.38281,0.00977c-0.79149,0.00838 -1.58297,0.01676 -2.39844,0.02539c-0.82242,0.00451 -1.64484,0.00902 -2.49219,0.01367c-2.00263,0.01165 -4.00523,0.02957 -6.00781,0.04883c-3.74626,-13.85487 -6.38437,-27.89496 -9,-42c-0.99,0 -1.98,0 -3,0c0.7665,6.97114 2.12793,13.73137 3.62695,20.57813c1.10059,5.25703 1.74432,10.04729 1.37305,15.42187c-0.66,0.99 -1.32,1.98 -2,3c-2.60845,-7.2228 -4.35061,-14.51619 -5.98962,-22.01392c-0.75811,-3.46756 -1.53085,-6.93186 -2.30335,-10.39624c-0.14946,-0.67165 -0.29892,-1.3433 -0.45291,-2.03531c-1.08904,-4.8731 -2.25357,-9.72065 -3.50412,-14.55453c-1.24126,-4.83355 -2.30513,-9.66226 -3.25,-14.5625c-1.19585,-6.17212 -2.73862,-12.18192 -4.40234,-18.24219c-1.32011,-4.92855 -2.42244,-9.90411 -3.53516,-14.88281c-1.65805,-7.39332 -3.36531,-14.77025 -5.1875,-22.125c-0.19392,-0.79302 -0.38785,-1.58603 -0.58765,-2.40308c-0.94222,-3.76608 -1.98778,-7.4314 -3.27954,-11.09301c-1.88957,-5.53462 -2.92293,-11.20446 -4.00781,-16.94141c-0.42954,-2.21252 -0.86052,-4.42476 -1.29297,-6.63672c-0.30817,-1.57854 -0.30817,-1.57854 -0.62256,-3.18896c-1.06693,-5.33822 -2.29139,-10.63638 -3.58447,-15.92432z" fill="#FCFCFC" id="svg_5"/>
        <path d="m316,355c0.625,2.375 0.625,2.375 0,5c-3.65266,3.96323 -7.72113,7.44124 -11.8125,10.9375c-0.6144,0.53577 -1.2288,1.07153 -1.86182,1.62354c-3.26844,2.82059 -6.44685,5.15836 -10.20068,7.31396c-2.48592,1.86578 -3.04567,2.79296 -3.77734,5.85547c-1.25452,26.1001 12.49454,52.96783 29.22656,72.06641c13.46685,14.21681 31.53086,23.99005 51.2832,24.62548c13.58583,0.08826 23.97767,-3.47872 35.86914,-9.77783c3.27344,-1.64453 3.27344,-1.64453 5.27344,-1.64453c0,-0.66 0,-1.32 0,-2c5.47619,-5 5.47619,-5 8,-5c0,-0.66 0,-1.32 0,-2c1.62103,-1.71109 3.29503,-3.37253 5,-5c0.68063,-0.78375 1.36125,-1.5675 2.0625,-2.375c1.9375,-1.625 1.9375,-1.625 4.125,-1.4375c1.8125,0.8125 1.8125,0.8125 2.8125,1.8125c0.37891,2.17578 0.37891,2.17578 0,5c-1.61698,2.2975 -3.14178,4.175 -5.0625,6.1875c-0.53295,0.5659 -1.06589,1.1318 -1.61499,1.71484c-15.00968,15.33565 -34.06546,22.90934 -55.32251,23.53516c-11.4352,-0.23612 -22.89343,-2.99826 -33,-8.4375c-0.9423,-0.50402 -1.88461,-1.00805 -2.85547,-1.52734c-9.75695,-5.45351 -18.21688,-11.66725 -25.14453,-20.47266c-0.61359,-0.71543 -1.22719,-1.43086 -1.85938,-2.16797c-12.36056,-14.68416 -21.92045,-33.84643 -25.14062,-52.83203c-1.81111,1.81111 -1.26856,4.70239 -1.38672,7.14844c-0.49928,7.6531 -1.81778,14.97522 -3.42578,22.47656c-0.24814,1.21945 -0.49629,2.43891 -0.75195,3.69531c-2.24623,10.6996 -5.18966,20.98517 -10.18555,30.74219c-0.51542,1.01332 -0.51542,1.01332 -1.04126,2.04712c-7.12581,13.65604 -16.74546,25.75444 -31.20874,31.89038c-11.10838,2.86045 -20.10385,0.59175 -30,-4.5625c-2,-1.4375 -2,-1.4375 -4,-4.4375c0.375,-2.6875 0.375,-2.6875 1,-5c5.27997,-0.66 7.98031,0.90944 12.16797,3.80859c4.57643,2.97614 9.58364,2.69908 14.83203,2.19141c10.99589,-2.51529 18.64704,-10.32889 24.6875,-19.5c16.91487,-27.1471 19.60976,-60.30383 20.3125,-91.5c-0.74564,-0.27924 -1.49128,-0.55849 -2.25952,-0.84619c-2.44484,-1.02934 -4.41182,-2.12004 -6.58814,-3.61475c-0.68771,-0.47179 -1.37543,-0.94359 -2.08398,-1.42968c-1.05478,-0.73477 -1.05478,-0.73477 -2.13086,-1.48438c-0.70705,-0.48211 -1.4141,-0.96422 -2.14258,-1.46094c-7.04272,-4.86708 -7.04272,-4.86708 -9.79492,-8.16406c-0.25,-2.75 -0.25,-2.75 0,-5c6.71038,-2.46416 13.39823,-4.01331 20.42187,-5.29687c1.06302,-0.1979 2.12603,-0.39579 3.22126,-0.59968c2.23147,-0.41326 4.46356,-0.82318 6.69623,-1.22991c3.41649,-0.62461 6.82953,-1.26607 10.24267,-1.9087c2.17559,-0.40076 4.35137,-0.80053 6.52734,-1.19922c1.01778,-0.19261 2.03556,-0.38522 3.08417,-0.58367c0.95159,-0.17058 1.90318,-0.34116 2.88361,-0.51691c1.24834,-0.22958 1.24834,-0.22958 2.52191,-0.46381c4.76787,-0.39961 8.66499,0.81001 12.40094,3.79877z" fill="#0B0B0B" id="svg_6"/>
        <path d="m99.93091,362.86938c1.90413,-0.00255 1.90413,-0.00255 3.84673,-0.00514c1.40355,0.00438 2.8071,0.00928 4.21064,0.01466c0.71225,0.00134 1.42449,0.00268 2.15832,0.00406c15.66201,0.033 31.30599,0.46287 46.95814,0.98587c2.80183,0.09237 5.60381,0.17962 8.4058,0.26688c7.31052,0.22778 14.62004,0.47659 21.92934,0.74093c3.34743,0.11599 6.69492,0.21357 10.04303,0.30744c1.89765,0.06421 3.79528,0.1291 5.69287,0.19482c0.83767,0.01845 1.67533,0.03689 2.53838,0.05589c4.51312,0.17654 7.77265,0.60116 11.28584,3.56521c0.3125,3.1875 0.3125,3.1875 0,6c-7.69845,4.43094 -15.42245,8.81181 -23.1875,13.125c-1.06613,0.5924 -1.06613,0.5924 -2.15381,1.19677c-9.42709,5.22676 -18.89669,10.35125 -28.47119,15.30323c-8.57413,4.45415 -17.0847,9.00987 -25.55493,13.6582c-5.18796,2.84443 -10.38739,5.6658 -15.60522,8.45508c-0.59728,0.31936 -1.19455,0.63873 -1.80993,0.96777c-3.02181,1.61481 -6.0453,3.22638 -9.07069,4.83447c-5.26128,2.8048 -10.49702,5.62967 -15.64673,8.63526c-0.81436,0.47163 -1.62873,0.94327 -2.46777,1.4292c-1.46006,0.85247 -2.91218,1.71877 -4.35352,2.60253c-4.78764,2.78819 -8.14524,3.19212 -13.67871,2.79249c-0.5625,-2.625 -0.5625,-2.625 0,-6c2.6462,-2.54364 5.82011,-4.20023 9,-6c1.04028,-0.61875 2.08055,-1.2375 3.15235,-1.875c6.55907,-3.84679 13.2347,-7.3606 20.05883,-10.71363c11.09093,-5.49028 21.91297,-11.51068 32.78882,-17.41137c2.03116,-1.10043 4.06241,-2.2007 6.09375,-3.30079c2.9435,-1.59431 5.88693,-3.18874 8.83008,-4.78369c7.68844,-4.16605 15.38015,-8.326 23.07617,-12.47802c1.62035,-0.87592 1.62035,-0.87592 3.27344,-1.76954c1.53527,-0.82757 1.53527,-0.82757 3.10156,-1.67187c0.89461,-0.48284 1.78922,-0.96567 2.71094,-1.46314c3.61101,-1.89959 7.25872,-3.72049 10.91406,-5.53295c-7.77057,-0.31917 -15.54144,-0.63052 -23.3125,-0.9375c-1.16488,-0.04608 -2.32976,-0.09215 -3.52994,-0.13962c-18.23448,-0.71514 -36.46584,-1.25904 -54.71151,-1.58084c-0.84491,-0.01631 -1.68982,-0.03261 -2.56034,-0.04941c-1.54597,-0.02963 -3.09202,-0.05597 -4.63812,-0.07794c-5.12678,-0.10018 -10.16084,-0.57529 -15.24759,-1.21469c-0.38063,-2.32609 -0.7127,-4.66056 -1,-7c1.7979,-1.7979 4.50647,-1.12905 6.93091,-1.13062z" fill="#0A0A0A" id="svg_8"/>
        <path d="m549,340c0.99,0.99 0.99,0.99 2,2c-0.0625,2.4375 -0.0625,2.4375 -1,5c-4.41987,3.37048 -9.59892,4.46048 -14.875,5.875c-6.0731,1.67988 -12.10241,3.3845 -18.0625,5.4375c-7.49993,2.56598 -15.08899,4.80827 -22.6875,7.0625c-9.78612,2.90335 -19.50392,5.94658 -29.1665,9.2417c-6.08261,2.05634 -12.20852,3.81265 -18.40943,5.47241c-6.67575,1.81358 -13.19761,4.0136 -19.74316,6.24585c-7.25326,2.45139 -14.5704,4.59965 -21.95362,6.62378c-3.89904,1.07833 -7.68923,2.22506 -11.45776,3.70142c-3.99553,1.46888 -6.46463,1.60108 -10.64453,1.33984c-1.3544,-2.70879 -1.06501,-5.00933 -1,-8c5.38428,-1.76308 10.76967,-3.52274 16.15601,-5.27954c1.82418,-0.59547 3.64808,-1.19179 5.47168,-1.78906c10.50249,-3.43913 21.01987,-6.77347 31.63525,-9.84766c4.96815,-1.44075 9.91581,-2.94485 14.86206,-4.45874c1.97393,-0.60295 3.94789,-1.20581 5.92187,-1.80859c0.98678,-0.30148 1.97356,-0.60296 2.99024,-0.91358c2.88729,-0.87979 5.7763,-1.75369 8.66601,-2.62549c9.94166,-3.00348 19.85212,-6.08352 29.73438,-9.27734c9.45622,-3.0554 18.95413,-5.92486 28.50952,-8.6543c5.09781,-1.45994 10.1348,-3.00367 15.13526,-4.77099c2.72617,-0.81699 5.10412,-0.91783 7.91772,-0.57471z" fill="#0C0C0C" id="svg_10"/>
        <path d="m223,413.875c3,0.125 3,0.125 4,1.125c0.33203,2.8125 0.33203,2.8125 0,6c-1.73828,2.0625 -1.73828,2.0625 -4.3125,4c-1.50627,1.15242 -1.50627,1.15242 -3.04297,2.32813c-1.21356,0.89237 -2.42851,1.78285 -3.64453,2.67187c-1.45475,1.07769 -2.90916,2.15584 -4.36328,3.23438c-3.23891,2.39534 -6.48674,4.77808 -9.73828,7.15625c-4.5127,3.31061 -8.96477,6.69395 -13.39844,10.10937c-6.86833,5.28795 -13.81863,10.45567 -20.81836,15.56836c-5.3041,3.88229 -10.50686,7.87901 -15.68164,11.93164c-7.09466,5.50341 -14.23503,10.94049 -21.42969,16.3125c-2.89377,2.1699 -5.76833,4.36425 -8.64062,6.5625c-0.9133,0.69851 -1.8266,1.39702 -2.76758,2.1167c-1.80991,1.38533 -3.61857,2.77228 -5.42578,4.16113c-2.56758,1.96444 -5.14852,3.90949 -7.73633,5.84717c-0.89042,0.67644 -1.78084,1.35287 -2.69824,2.0498c-0.87044,0.64099 -1.74088,1.28198 -2.6377,1.94239c-1.16475,0.86794 -1.16475,0.86794 -2.35302,1.75342c-2.69922,1.46509 -4.28337,1.66049 -7.31104,1.25439c-0.66,-0.66 -1.32,-1.32 -2,-2c0.10153,-3.40119 0.73052,-4.72306 3.11719,-7.17578c0.91008,-0.70512 1.82015,-1.41024 2.75781,-2.13672c1.50047,-1.17176 1.50047,-1.17176 3.03125,-2.36719c3.71165,-2.78373 7.44884,-5.5262 11.21875,-8.23047c5.38101,-3.91146 10.61619,-8.01649 15.875,-12.08984c7.45767,-5.76653 14.95063,-11.47786 22.50195,-17.12109c5.63181,-4.21457 11.22275,-8.48125 16.81055,-12.75391c7.63076,-5.83153 15.32421,-11.5685 23.06982,-17.24634c5.59453,-4.10687 11.11371,-8.29816 16.59815,-12.55053c4.21672,-3.25119 8.48363,-6.43293 12.7539,-9.61329c3.60553,-2.729 3.60553,-2.729 6.26563,-2.83984z" fill="#0D0D0D" id="svg_11"/>
        <path d="m387.94336,398.96411c0.79213,0.10079 1.58426,0.20158 2.40039,0.30542c0.90106,0.11038 1.80211,0.22075 2.73047,0.33447c1.44826,0.19602 1.44826,0.19602 2.92578,0.396c1.43279,0.18248 1.43279,0.18248 2.89453,0.36865c3.20512,0.41831 6.40533,0.86405 9.60547,1.31885c1.19762,0.17007 2.39524,0.34015 3.62915,0.51538c10.54983,1.53569 21.03504,3.37135 31.52649,5.25864c8.95992,1.6105 17.91315,3.13497 26.93591,4.35513c10.83163,1.47931 21.61876,3.25542 32.4126,4.98535c6.9945,1.11745 13.984,2.22512 21.00757,3.14722c0.98291,0.12955 1.96582,0.2591 2.97852,0.39258c1.73554,0.22244 3.4725,0.43425 5.21093,0.63281c5.31052,0.67823 5.31052,0.67823 7.79883,2.44726c1.44881,2.2864 1.33907,3.93341 1,6.57813c-2,2 -2,2 -4.47656,2.06885c-8.17588,-0.72655 -16.23057,-1.89366 -24.31229,-3.30759c-3.94165,-0.68856 -7.88701,-1.35527 -11.83224,-2.02298c-0.83672,-0.1419 -1.67344,-0.28381 -2.53551,-0.43001c-9.95347,-1.67896 -19.92954,-3.20997 -29.9059,-4.74577c-15.40589,-2.37695 -30.80181,-4.80802 -46.1875,-7.3125c-0.87939,-0.14275 -1.75878,-0.28551 -2.66482,-0.43259c-5.69734,-0.92564 -11.39251,-1.86344 -17.08518,-2.81741c-0.82025,-0.13721 -1.64049,-0.27441 -2.4856,-0.41577c-2.39631,-0.40327 -4.79145,-0.81284 -7.18627,-1.22486c-0.72657,-0.1222 -1.45314,-0.24439 -2.20173,-0.3703c-5.0109,-0.87358 -5.0109,-0.87358 -6.1264,-1.98907c-0.1875,-2.9375 -0.1875,-2.9375 0,-6c2,-2 2,-2 3.94336,-2.03589z" fill="#0C0C0C" id="svg_12"/>
        <path d="m494,309c1,1 1,1 1.35059,3.32959c-0.35059,2.67041 -0.35059,2.67041 -2.25586,4.5791c-0.89236,0.5999 -1.78471,1.1998 -2.70411,1.81787c-1.0074,0.6874 -2.0148,1.37479 -3.05273,2.08301c-1.65226,1.08426 -1.65226,1.08426 -3.33789,2.19043c-1.12869,0.75293 -2.25694,1.50652 -3.38477,2.26074c-3.60464,2.3979 -7.23358,4.75756 -10.86523,7.11426c-2.4435,1.58993 -4.88597,3.18144 -7.32813,4.77344c-0.61046,0.39776 -1.22093,0.79552 -1.84989,1.20534c-6.89201,4.4968 -13.73216,9.0706 -20.57198,13.64622c-5.39486,3.60563 -10.7907,7.20978 -16.1875,10.8125c-0.71197,0.47529 -1.42393,0.95058 -2.15747,1.44028c-9.66823,6.45158 -19.3593,12.86247 -29.13232,19.15469c-3.43513,2.07203 -3.43513,2.07203 -6.52271,4.59253c-2.9375,0.1875 -2.9375,0.1875 -6,0c-2,-2 -2,-2 -2.05859,-4.83594c1.45699,-4.35484 4.17334,-5.66645 7.99609,-7.78906c1.48339,-0.87487 2.9651,-1.75258 4.44531,-2.63281c0.76861,-0.4515 1.53721,-0.90299 2.3291,-1.36817c3.61508,-2.17089 7.10564,-4.51618 10.60059,-6.87402c1.50253,-1.00793 3.00513,-2.01574 4.50781,-3.02344c1.21672,-0.81742 1.21672,-0.81742 2.45801,-1.65136c4.86805,-3.26458 9.74754,-6.51202 14.62546,-9.76181c9.68054,-6.44733 9.68054,-6.44733 19.35013,-12.91105c8.43536,-5.64755 16.93154,-11.19839 25.4541,-16.71362c0.9278,-0.60239 1.8556,-1.20479 2.81152,-1.82544c1.36826,-0.88438 1.36826,-0.88438 2.76416,-1.78662c1.84507,-1.24077 3.65467,-2.53562 5.42871,-3.87598c0.8619,-0.65017 1.7238,-1.30034 2.61182,-1.97021c0.75756,-0.59531 1.51513,-1.19061 2.29565,-1.80396c3.16475,-1.56435 5.03264,-1.08131 8.38013,-0.17651z" fill="#0D0D0D" id="svg_13"/>
        <path d="m478,166c1.98,0.495 1.98,0.495 4,1c0.20363,1.08716 0.20363,1.08716 0.41138,2.19629c0.63002,3.35194 1.26554,6.70282 1.90112,10.05371c0.21334,1.13953 0.42668,2.27906 0.64648,3.45313c1.94104,13.2349 1.94104,13.2349 7.04102,25.29687c3.21395,0.31303 3.21395,0.31303 7.01563,0.09766c5.95219,-0.13505 11.78715,0.00166 17.71875,0.52343c0.73204,0.06407 1.46409,0.12814 2.21832,0.19416c1.5003,0.13443 3.0004,0.27109 4.5003,0.40991c3.931,0.36339 7.86393,0.70427 11.797,1.04437c0.76407,0.06637 1.52814,0.13273 2.31537,0.20111c6.80933,0.58167 13.61963,0.98556 20.44928,1.2381c3.888,0.14909 7.68455,0.50226 11.53906,1.01929c6.56205,0.72955 13.17697,0.99911 19.7666,1.39697c2.0028,0.12184 4.00531,0.24836 6.00782,0.375c1.18497,0.07219 2.36994,0.14437 3.59082,0.21875c2.49305,0.22758 4.69048,0.57337 7.08105,1.28125c-0.33,1.32 -0.66,2.64 -1,4c-5.60862,0.09279 -10.98688,0.04421 -16.54687,-0.77344c-3.62909,-0.33517 -7.24787,-0.34197 -10.89063,-0.35156c-0.72341,-0.00451 -1.44681,-0.00902 -2.19214,-0.01367c-3.47535,-0.30419 -3.47535,-0.30419 -6.37036,1.13867c-2.18187,0.08491 -4.36658,0.09847 -6.55005,0.08325c-1.00752,-0.006 -1.00752,-0.006 -2.0354,-0.01213c-12.12902,-0.09093 -24.25466,-0.43548 -36.37915,-0.76082c-3.16816,-0.08418 -6.33636,-0.1602 -9.50488,-0.22949c-3.86264,-0.08455 -7.72468,-0.18313 -11.58671,-0.29181c-1.46189,-0.0388 -2.92392,-0.07266 -4.38605,-0.10142c-2.03348,-0.04098 -4.06654,-0.10175 -6.09951,-0.16341c-1.15389,-0.02887 -2.30777,-0.05774 -3.49663,-0.08748c-3.22928,-0.47616 -4.64798,-1.17202 -6.96162,-3.43669c-0.64453,-2.15625 -0.64453,-2.15625 -0.8125,-4.5c-0.06832,-0.77344 -0.13664,-1.54687 -0.20703,-2.34375c0.01953,-2.15625 0.01953,-2.15625 1.01953,-5.15625c0.52691,-8.10707 -1.49273,-15.56487 -3.31055,-23.41992c-0.34321,-1.54591 -0.34321,-1.54591 -0.69336,-3.12305c-0.21471,-0.92837 -0.42942,-1.85673 -0.65063,-2.81323c-0.36888,-2.82304 -0.05897,-4.90409 0.65454,-7.6438z" fill="#EDEDED" id="svg_14"/>
        <path d="m495,208c9.49089,-0.21544 18.78839,0.36583 28.22668,1.22516c3.9715,0.36103 7.94454,0.7039 11.91785,1.04437c0.77335,0.06637 1.54669,0.13273 2.34348,0.20111c6.83509,0.57643 13.67101,0.98454 20.52591,1.2381c3.88825,0.14904 7.68503,0.50223 11.53979,1.01929c6.56205,0.72955 13.17697,0.99911 19.7666,1.39697c2.0028,0.12184 4.00531,0.24836 6.00782,0.375c1.18497,0.07219 2.36994,0.14438 3.59082,0.21875c2.49305,0.22758 4.69048,0.57337 7.08105,1.28125c-0.33,1.32 -0.66,2.64 -1,4c-7.78378,0.17933 -15.39172,-0.30695 -23.13681,-1.05405c-18.98587,-1.81419 -38.01686,-2.96456 -57.05069,-4.13345c-0.73607,-0.04526 -1.47215,-0.09053 -2.23053,-0.13716c-9.19359,-0.56506 -18.38757,-1.1236 -27.58197,-1.67534c0,-1.65 0,-3.3 0,-5z" fill="#111111" id="svg_16"/>
        <path d="m478,166c1.98,0.495 1.98,0.495 4,1c0.20363,1.08716 0.20363,1.08716 0.41138,2.19629c0.63002,3.35194 1.26554,6.70282 1.90112,10.05371c0.21334,1.13953 0.42668,2.27906 0.64648,3.45313c1.25656,6.60158 2.68936,13.09056 4.47925,19.56933c0.61239,2.97332 0.65669,5.69999 0.56177,8.72754c-1.65,-0.33 -3.3,-0.66 -5,-1c-0.13575,-0.68401 -0.27151,-1.36802 -0.41138,-2.07275c-0.63263,-3.1843 -1.26694,-6.36826 -1.90112,-9.55225c-0.22639,-1.14179 -0.45278,-2.28357 -0.68604,-3.45996c-1.41727,-7.11363 -2.91833,-14.19132 -4.61865,-21.24316c-0.40817,-2.84885 -0.11944,-4.90698 0.61719,-7.67188z" fill="#181818" id="svg_20"/>
    </g>

</svg>
